<?xml version="1.0" encoding="UTF-8"?>
<svg width="16px" height="16px" viewBox="0 0 16 16" version="1.1" xmlns="http://www.w3.org/2000/svg" xmlns:xlink="http://www.w3.org/1999/xlink">
    <!-- Generator: Sketch 40.3 (33839) - http://www.bohemiancoding.com/sketch -->
    <title>ic-elipse</title>
    <desc>Created with Sketch.</desc>
    <defs></defs>
    <g stroke="none" stroke-width="1" fill="none" fill-rule="evenodd">
        <g transform="translate(-216.000000, -523.000000)">
            <g transform="translate(204.000000, 427.000000)">
                <g transform="translate(12.000000, 96.000000)">
                    <g>
                        <rect x="0" y="0" width="16" height="16"></rect>
                        <path d="M8,14 C12.418278,14 16,11.3137085 16,8 C16,4.6862915 12.418278,2 8,2 C3.581722,2 0,4.6862915 0,8 C0,11.3137085 3.581722,14 8,14 Z M8,12 C11.3137085,12 14,10.209139 14,8 C14,5.790861 11.3137085,4 8,4 C4.6862915,4 2,5.790861 2,8 C2,10.209139 4.6862915,12 8,12 Z" fill="#5A5A5A"></path>
                    </g>
                </g>
            </g>
        </g>
    </g>
</svg>