<?xml version="1.0" encoding="UTF-8"?>
<svg width="16px" height="16px" viewBox="0 0 16 16" version="1.1" xmlns="http://www.w3.org/2000/svg" xmlns:xlink="http://www.w3.org/1999/xlink">
    <!-- Generator: Sketch 40.3 (33839) - http://www.bohemiancoding.com/sketch -->
    <title>ic-line-dotted</title>
    <desc>Created with Sketch.</desc>
    <defs></defs>
    <g stroke="none" stroke-width="1" fill="none" fill-rule="evenodd">
        <g transform="translate(-280.000000, -575.000000)">
            <g transform="translate(268.000000, 423.000000)">
                <g transform="translate(12.000000, 152.000000)">
                    <g>
                        <rect x="0" y="0" width="16" height="16"></rect>
                        <path d="M3.12132034,14.2928932 L1.70710678,12.8786797 L0.292893219,14.2928932 L1.70710678,15.7071068 L3.12132034,14.2928932 Z M5.94974747,11.4644661 L4.53553391,10.0502525 L3.12132034,11.4644661 L4.53553391,12.8786797 L5.94974747,11.4644661 Z M8.77817459,8.63603897 L7.36396103,7.22182541 L5.94974747,8.63603897 L7.36396103,10.0502525 L8.77817459,8.63603897 Z M11.6066017,5.80761184 L10.1923882,4.39339828 L8.77817459,5.80761184 L10.1923882,7.22182541 L11.6066017,5.80761184 Z M14.4350288,2.97918472 L13.0208153,1.56497116 L11.6066017,2.97918472 L13.0208153,4.39339828 L14.4350288,2.97918472 Z" fill="#5A5A5A"></path>
                    </g>
                </g>
            </g>
        </g>
    </g>
</svg>