<?xml version="1.0" encoding="UTF-8"?>
<svg width="16px" height="16px" viewBox="0 0 16 16" version="1.1" xmlns="http://www.w3.org/2000/svg" xmlns:xlink="http://www.w3.org/1999/xlink">
    <!-- Generator: Sketch 40.3 (33839) - http://www.bohemiancoding.com/sketch -->
    <title>ic-numbers</title>
    <desc>Created with Sketch.</desc>
    <defs></defs>
    <g stroke="none" stroke-width="1" fill="none" fill-rule="evenodd">
        <g transform="translate(-563.000000, -432.000000)">
            <g transform="translate(551.000000, 420.000000)">
                <g transform="translate(12.000000, 12.000000)">
                    <g>
                        <rect x="0" y="0" width="16" height="16"></rect>
                        <path d="M4.33900518,8 L2.81183127,8 L2.81183127,2.24456522 C2.25385746,2.76630696 1.59625534,3.15217266 0.83900518,3.40217391 L0.83900518,2.01630435 C1.2375579,1.88586891 1.67052458,1.63858878 2.13791822,1.27445652 C2.60531186,0.910324266 2.92596083,0.485509674 3.09987475,0 L4.33900518,0 L4.33900518,8 Z" fill="#5A5A5A"></path>
                        <path d="M10.2905273,10.5043945 L10.2905273,11.90625 L5,11.90625 C5.05729195,11.3762994 5.22916523,10.8741072 5.515625,10.3996582 C5.80208477,9.92520922 6.36783432,9.29590236 7.21289062,8.51171875 C7.89323257,7.87792652 8.31038334,7.44824332 8.46435547,7.22265625 C8.6720388,6.91113125 8.77587891,6.60319163 8.77587891,6.29882812 C8.77587891,5.9622379 8.6854664,5.70353281 8.50463867,5.52270508 C8.32381094,5.34187735 8.07405758,5.25146484 7.75537109,5.25146484 C7.44026535,5.25146484 7.18961682,5.34635322 7.00341797,5.53613281 C6.81721912,5.72591241 6.70979832,6.04101342 6.68115234,6.48144531 L5.17724609,6.33105469 C5.26676477,5.50032137 5.5478492,4.90413592 6.02050781,4.54248047 C6.49316643,4.18082501 7.08398083,4 7.79296875,4 C8.56999086,4 9.18049908,4.20947056 9.62451172,4.62841797 C10.0685244,5.04736538 10.2905273,5.56835626 10.2905273,6.19140625 C10.2905273,6.54590021 10.22697,6.88338056 10.0998535,7.20385742 C9.97273699,7.52433428 9.77132299,7.86002429 9.49560547,8.2109375 C9.31298737,8.44368606 8.98356358,8.77848089 8.50732422,9.21533203 C8.03108486,9.65218317 7.72941144,9.94221934 7.60229492,10.0854492 C7.4751784,10.2286791 7.37223347,10.3683261 7.29345703,10.5043945 L10.2905273,10.5043945 Z" fill="#5A5A5A"></path>
                        <path d="M10.4135742,12.87358 L11.8443725,12.6999905 C11.8899619,13.0647056 12.0127007,13.3434981 12.2125927,13.5363763 C12.4124846,13.7292545 12.6544555,13.8256921 12.9385124,13.8256921 C13.2436107,13.8256921 13.5004855,13.7099669 13.7091446,13.4785131 C13.9178037,13.2470593 14.0221317,12.934952 14.0221317,12.5421818 C14.0221317,12.170453 13.9221873,11.8758798 13.7222953,11.6584535 C13.5224034,11.4410272 13.2786791,11.3323156 12.9911153,11.3323156 C12.801744,11.3323156 12.5755539,11.3691373 12.3125382,11.4427817 L12.4756071,10.2381757 C12.875391,10.2486964 13.1804846,10.1619025 13.3908972,9.97779148 C13.6013098,9.79368048 13.7065145,9.54907954 13.7065145,9.24398131 C13.7065145,8.98447248 13.6293643,8.77756989 13.4750618,8.62326734 C13.3207592,8.46896479 13.1156101,8.39181467 12.8596081,8.39181467 C12.607113,8.39181467 12.3914434,8.47948526 12.2125927,8.65482906 C12.033742,8.83017287 11.9250305,9.08617099 11.8864548,9.4228311 L10.5240403,9.19137843 C10.6187259,8.72496391 10.761629,8.3523639 10.9527537,8.07356725 C11.1438785,7.79477059 11.4103971,7.57559412 11.7523175,7.41603126 C12.0942379,7.25646839 12.4773584,7.17668816 12.9016904,7.17668816 C13.6276138,7.17668816 14.2097465,7.40813851 14.648106,7.87104616 C15.0093142,8.24978879 15.1899157,8.67762126 15.1899157,9.15455642 C15.1899157,9.83138352 14.8199458,10.3714343 14.0799949,10.7747251 C14.5218613,10.8694108 14.8751738,11.0815736 15.1399429,11.4112199 C15.4047121,11.7408663 15.5370947,12.1388908 15.5370947,12.6053053 C15.5370947,13.2821324 15.2898636,13.8590049 14.7953941,14.33594 C14.3009245,14.8128752 13.685477,15.0513392 12.949033,15.0513392 C12.2511646,15.0513392 11.6725388,14.8505735 11.213138,14.4490362 C10.7537372,14.0474989 10.4872186,13.5223521 10.4135742,12.87358 L10.4135742,12.87358 Z" fill="#5A5A5A"></path>
                    </g>
                </g>
            </g>
        </g>
    </g>
</svg>