<?xml version="1.0" encoding="UTF-8"?>
<svg width="16px" height="16px" viewBox="0 0 16 16" version="1.1" xmlns="http://www.w3.org/2000/svg" xmlns:xlink="http://www.w3.org/1999/xlink">
    <!-- Generator: Sketch 40.3 (33839) - http://www.bohemiancoding.com/sketch -->
    <title>ic-resize</title>
    <desc>Created with Sketch.</desc>
    <defs></defs>
    <g stroke="none" stroke-width="1" fill="none" fill-rule="evenodd">
        <g transform="translate(-203.000000, -38.000000)">
            <g transform="translate(33.000000, 26.000000)">
                <g transform="translate(12.000000, 12.000000)">
                    <g transform="translate(158.000000, 0.000000)">
                        <g>
                            <rect x="0" y="0" width="16" height="16"></rect>
                            <path d="M14,12.5857864 L11.2071068,9.79289322 L9.79289322,11.2071068 L12.5857864,14 L10,14 L10,16 L15,16 L16,16 L16,10 L14,10 L14,12.5857864 Z M2,12.5857864 L4.79289322,9.79289322 L6.20710678,11.2071068 L3.41421356,14 L6,14 L6,16 L0,16 L0,15 L0,10 L2,10 L2,12.5857864 Z M14,3.41421356 L11.2071068,6.20710678 L9.79289322,4.79289322 L12.5857864,2 L10,2 L10,-1.11022302e-16 L16,-1.11022302e-16 L16,1 L16,6 L14,6 L14,3.41421356 Z M2,3.41421356 L4.79289322,6.20710678 L6.20710678,4.79289322 L3.41421356,2 L6,2 L6,-3.33066907e-16 L1,-2.69052076e-17 L0,-1.11022302e-16 L0,6 L2,6 L2,3.41421356 Z" fill="#5A5A5A"></path>
                        </g>
                    </g>
                </g>
            </g>
        </g>
    </g>
</svg>