<?xml version="1.0" encoding="UTF-8"?>
<svg width="16px" height="16px" viewBox="0 0 16 16" version="1.1" xmlns="http://www.w3.org/2000/svg" xmlns:xlink="http://www.w3.org/1999/xlink">
    <!-- Generator: Sketch 40.3 (33839) - http://www.bohemiancoding.com/sketch -->
    <title>ic-square-rounded</title>
    <desc>Created with Sketch.</desc>
    <defs></defs>
    <g stroke="none" stroke-width="1" fill="none" fill-rule="evenodd">
        <g transform="translate(-216.000000, -467.000000)">
            <g transform="translate(204.000000, 427.000000)">
                <g transform="translate(12.000000, 40.000000)">
                    <g>
                        <rect x="0" y="0" width="16" height="16"></rect>
                        <path d="M0,4.99310226 C0,2.78777278 1.78883037,1 3.99620271,1 L12.0037973,1 C14.2108391,1 16,2.78732987 16,4.99310226 L16,11.0068977 C16,13.2122272 14.2111696,15 12.0037973,15 L3.99620271,15 C1.78916089,15 0,13.2126701 0,11.0068977 L0,4.99310226 Z M2,4.99961498 C2,3.89525812 2.90195036,3 4.0085302,3 L11.9914698,3 C13.1007504,3 14,3.88743329 14,4.99961498 L14,11.000385 C14,12.1047419 13.0980496,13 11.9914698,13 L4.0085302,13 C2.8992496,13 2,12.1125667 2,11.000385 L2,4.99961498 Z" fill="#5A5A5A"></path>
                    </g>
                </g>
            </g>
        </g>
    </g>
</svg>