<svg xmlns="http://www.w3.org/2000/svg" width="16" height="16" viewBox="0 0 16 16">
  <g fill="none" fill-rule="evenodd">
    <rect width="16" height="16"/>
    <path fill="#5A5A5A" d="M2.342,3.34500584 L0,1.00000584 L0,7.00000584 L6,7.00000584 L3.759,4.75700584 C5.30566694,3.20281714 7.57695049,2.61607955 9.68285105,3.22670545 C11.7887516,3.83733135 13.3938612,5.54806601 13.8692197,7.68856022 C14.3445782,9.82905443 13.6494749,11.5553846 12,13 L13.5,14.5 C15.9977745,12.2996878 16.6590791,9.28563699 15.4823293,6.17187541 C14.3055796,3.05811384 11.3237007,0.998382235 7.995,1.00000584 C5.87352516,0.997437551 3.83872761,1.84152038 2.342,3.34500584 Z"/>
    <path fill="#5A5A5A" d="M4.19921875,15 L3.96972656,14.2480469 L3.93066406,14.2480469 C3.67024609,14.5768246 3.40820444,14.8006179 3.14453125,14.9194336 C2.88085806,15.0382493 2.54231978,15.0976562 2.12890625,15.0976562 C1.59830464,15.0976562 1.18408352,14.9544285 0.886230469,14.6679688 C0.588377417,14.381509 0.439453125,13.9762396 0.439453125,13.4521484 C0.439453125,12.895505 0.646156787,12.4755874 1.05957031,12.1923828 C1.47298384,11.9091783 2.10286035,11.7545574 2.94921875,11.7285156 L3.88183594,11.6992188 L3.88183594,11.4111328 C3.88183594,11.066079 3.80127034,10.8081063 3.64013672,10.637207 C3.4790031,10.4663077 3.22916836,10.3808594 2.890625,10.3808594 C2.61393091,10.3808594 2.34863408,10.4215491 2.09472656,10.5029297 C1.84081904,10.5843103 1.59668086,10.680338 1.36230469,10.7910156 L0.991210938,9.97070312 C1.28418115,9.81770757 1.60481597,9.70133503 1.953125,9.62158203 C2.30143403,9.54182903 2.63020679,9.50195312 2.93945312,9.50195312 C3.62630552,9.50195312 4.14469226,9.65169121 4.49462891,9.95117188 C4.84456555,10.2506525 5.01953125,10.7210254 5.01953125,11.3623047 L5.01953125,15 L4.19921875,15 Z M2.49023438,14.21875 C2.90690312,14.21875 3.24137244,14.1023775 3.49365234,13.8696289 C3.74593225,13.6368803 3.87207031,13.310549 3.87207031,12.890625 L3.87207031,12.421875 L3.17871094,12.4511719 C2.63834365,12.4707032 2.24528118,12.5610344 1.99951172,12.722168 C1.75374226,12.8833016 1.63085938,13.1298812 1.63085938,13.4619141 C1.63085938,13.7028007 1.70247324,13.8891595 1.84570312,14.0209961 C1.98893301,14.1528327 2.20377461,14.21875 2.49023438,14.21875 L2.49023438,14.21875 Z M7.76855469,15 L6.62109375,15 L6.62109375,7.40234375 L7.76855469,7.40234375 L7.76855469,15 Z M10.5566406,15 L9.40917969,15 L9.40917969,7.40234375 L10.5566406,7.40234375 L10.5566406,15 Z"/>
  </g>
</svg>
