<?xml version="1.0" encoding="UTF-8"?>
<svg width="16px" height="16px" viewBox="0 0 16 16" version="1.1" xmlns="http://www.w3.org/2000/svg" xmlns:xlink="http://www.w3.org/1999/xlink">
    <!-- Generator: Sketch 40.3 (33839) - http://www.bohemiancoding.com/sketch -->
    <title>ic-cancel</title>
    <desc>Created with Sketch.</desc>
    <defs></defs>
    <g stroke="none" stroke-width="1" fill="none" fill-rule="evenodd">
        <g transform="translate(-500.000000, -75.000000)">
            <g transform="translate(500.000000, 75.000000)">
                <g>
                    <rect x="0" y="0" width="16" height="16"></rect>
                    <path d="M13.8886303,11.641086 L13.8886303,11.641086 L10.2497188,8.00287527 L13.8886303,4.36366059 L13.8886303,4.36366059 C13.9262462,4.32552713 13.9556368,4.28008299 13.9749841,4.23013906 C14.0284733,4.09101161 13.9945855,3.93342406 13.8886303,3.82857055 L12.169586,2.1098573 C12.065981,2.00613999 11.9113735,1.97239966 11.7739649,2.02352007 C11.7236212,2.04220751 11.6777765,2.07128247 11.6394135,2.10885338 L11.6394135,2.10885338 L8.00050206,5.74907197 L4.3605865,2.1098573 L4.3605865,2.1098573 C4.21358547,1.96493284 3.97741501,1.96493284 3.83041397,2.1098573 L2.11136972,3.82857055 C2.00541451,3.93342406 1.97152666,4.09101161 2.02501586,4.23013906 C2.04436323,4.28008299 2.07375382,4.32552713 2.11136972,4.36366059 L2.11136972,4.36366059 L5.75028116,8.00287527 L2.11136972,11.641086 L2.11136972,11.641086 C2.07350064,11.6794033 2.04408374,11.7252301 2.02501586,11.7756115 C1.9738856,11.9129936 2.00763243,12.0675714 2.11136972,12.1711565 L3.83041397,13.8908736 C3.93424017,13.9942398 4.08881931,14.0275817 4.22603514,13.9762069 C4.27655883,13.9578841 4.32247668,13.9287627 4.3605865,13.8908736 L4.3605865,13.8908736 L8.00050206,10.251659 L11.6394135,13.8908736 L11.6394135,13.8908736 C11.6775233,13.9287627 11.7234412,13.9578841 11.7739649,13.9762069 C11.9111807,14.0275817 12.0657598,13.9942398 12.169586,13.8908736 L13.8886303,12.1711565 C13.9923676,12.0675714 14.0261144,11.9129936 13.9749841,11.7756115 C13.9559163,11.7252301 13.9264994,11.6794033 13.8886303,11.641086 L13.8886303,11.641086 Z" fill="#5A5A5A"></path>
                </g>
            </g>
        </g>
    </g>
</svg>