<?xml version="1.0" encoding="UTF-8"?>
<svg width="24px" height="24px" viewBox="0 0 24 24" version="1.1" xmlns="http://www.w3.org/2000/svg" xmlns:xlink="http://www.w3.org/1999/xlink">
    <!-- Generator: Sketch 45.2 (43514) - http://www.bohemiancoding.com/sketch -->
    <title>ic-editor</title>
    <desc>Created with Sketch.</desc>
    <defs></defs>
    <g id="Symbols" stroke="none" stroke-width="1" fill="none" fill-rule="evenodd">
        <g id="ic-editor">
            <rect id="Rectangle-164" x="0" y="0" width="24" height="24"></rect>
            <path d="M11.0867087,21.6904422 C11.6467875,21.2899479 11.8370957,20.7143934 11.9698591,19.6246679 C11.9837047,19.5092686 11.9837047,19.5092686 11.9968857,19.3963687 C12.1087687,18.4400486 12.2127815,18.1678604 12.4251466,18.1340864 C13.0473052,18.0351399 13.7363245,18.0454375 14.6880634,18.1427171 C14.909021,18.1653017 15.1049611,18.1877453 15.4760577,18.231985 C18.8505646,18.6342722 20.1609433,18.4030435 21.0622959,16.4391015 C23.3928466,11.3611037 21.2304168,5.32463922 16.2279951,2.95457923 C11.2212395,0.582465951 5.27022357,2.78317926 2.93770412,7.86546661 C0.607153365,12.9434644 2.76958323,18.9799289 7.77200494,21.3499889 C9.31652453,22.0817553 10.3775508,22.1975381 11.0867087,21.6904422 Z M3.84655629,8.28258497 C5.94768559,3.70446973 11.2986013,1.72567628 15.7998362,3.8582827 C20.3054049,5.99294242 22.2565417,11.4395784 20.1534437,16.0219832 C19.5108658,17.4220854 18.5509446,17.5914725 15.5944331,17.2390161 C15.2180002,17.1941402 15.0179206,17.1712225 14.7897461,17.1479002 C13.7591376,17.0425592 12.9935746,17.0311176 12.268083,17.1464979 C11.3839964,17.2871008 11.171901,17.8421275 11.00366,19.280168 C10.9905159,19.3927401 10.9905159,19.3927401 10.977199,19.5037302 C10.8781599,20.316646 10.751035,20.7011133 10.5050494,20.8770097 C10.169459,21.1169796 9.45009255,21.0384798 8.20016385,20.4462854 C3.69459513,18.3116257 1.7434583,12.8649898 3.84655629,8.28258497 Z" id="Oval-50" fill="#5A5A5A" fill-rule="nonzero"></path>
            <circle id="Oval-46" fill="#5A5A5A" cx="6.5" cy="12.5" r="1.5"></circle>
            <circle id="Oval-46" fill="#5A5A5A" cx="8.5" cy="8.5" r="1.5"></circle>
            <circle id="Oval-46" fill="#5A5A5A" cx="13.5" cy="7.5" r="1.5"></circle>
            <circle id="Oval-46" fill="#5A5A5A" cx="17" cy="12" r="2"></circle>
            <circle id="Oval-46" fill="#5A5A5A" cx="8" cy="17" r="1"></circle>
        </g>
    </g>
</svg>