<?xml version="1.0" encoding="UTF-8"?>
<svg width="46px" height="46px" viewBox="0 0 46 46" version="1.1" xmlns="http://www.w3.org/2000/svg" xmlns:xlink="http://www.w3.org/1999/xlink">
    <!-- Generator: Sketch 45.2 (43514) - http://www.bohemiancoding.com/sketch -->
    <title>notif_blue</title>
    <desc>Created with Sketch.</desc>
    <defs>
        <circle id="path-1" cx="23" cy="23" r="23"></circle>
        <filter x="-8.7%" y="-4.3%" width="117.4%" height="117.4%" filterUnits="objectBoundingBox" id="filter-2">
            <feOffset dx="0" dy="2" in="SourceAlpha" result="shadowOffsetOuter1"></feOffset>
            <feGaussianBlur stdDeviation="1" in="shadowOffsetOuter1" result="shadowBlurOuter1"></feGaussianBlur>
            <feColorMatrix values="0 0 0 0 0.152941176   0 0 0 0 0.694117647   0 0 0 0 0.909803922  0 0 0 0.344542572 0" type="matrix" in="shadowBlurOuter1"></feColorMatrix>
        </filter>
    </defs>
    <g id="Symbols" stroke="none" stroke-width="1" fill="none" fill-rule="evenodd">
        <g id="notif_blue">
            <g>
                <g id="Oval">
                    <use fill="black" fill-opacity="1" filter="url(#filter-2)" xlink:href="#path-1"></use>
                    <use fill="#27B1E8" fill-rule="evenodd" xlink:href="#path-1"></use>
                </g>
                <path d="M20.5400391,26.6586914 L20.5400391,25.5385742 C20.5400391,25.0239232 20.593017,24.5572124 20.6989746,24.1384277 C20.8049322,23.7196431 20.9663889,23.3210468 21.1833496,22.942627 C21.4003103,22.5642071 21.6803368,22.195884 22.0234375,21.8376465 C22.3665382,21.479409 22.780271,21.1085631 23.2646484,20.7250977 C23.6884787,20.3920882 24.0467108,20.0944024 24.3393555,19.8320312 C24.6320002,19.5696601 24.8691397,19.3098157 25.0507812,19.0524902 C25.2324228,18.7951647 25.3636064,18.5252293 25.4443359,18.2426758 C25.5250655,17.9601223 25.5654297,17.6321633 25.5654297,17.2587891 C25.5654297,16.6835909 25.3711771,16.2093118 24.982666,15.8359375 C24.594155,15.4625632 24.0013061,15.2758789 23.2041016,15.2758789 C22.507809,15.2758789 21.7585489,15.4221991 20.9562988,15.7148438 C20.1540487,16.0074884 19.3240603,16.3657205 18.4663086,16.7895508 L16.9223633,13.4443359 C17.3562847,13.192056 17.8280411,12.9523937 18.3376465,12.7253418 C18.8472519,12.4982899 19.3770318,12.296469 19.927002,12.119873 C20.4769722,11.9432771 21.0345024,11.8045252 21.5996094,11.7036133 C22.1647164,11.6027013 22.7197238,11.5522461 23.2646484,11.5522461 C24.2939505,11.5522461 25.2223266,11.6758614 26.0498047,11.9230957 C26.8772828,12.17033 27.5786104,12.5310849 28.1538086,13.0053711 C28.7290068,13.4796573 29.17049,14.0548469 29.4782715,14.730957 C29.786053,15.4070672 29.9399414,16.1790321 29.9399414,17.046875 C29.9399414,17.6826204 29.8693041,18.2502416 29.7280273,18.7497559 C29.5867506,19.2492701 29.3773614,19.7134581 29.0998535,20.142334 C28.8223456,20.5712098 28.4742046,20.9849427 28.0554199,21.3835449 C27.6366353,21.7821472 27.1497424,22.2034483 26.5947266,22.6474609 C26.1708963,22.9804704 25.825278,23.270588 25.5578613,23.5178223 C25.2904446,23.7650566 25.0810554,23.9996734 24.9296875,24.2216797 C24.7783196,24.443686 24.6748863,24.6732573 24.6193848,24.9104004 C24.5638832,25.1475435 24.5361328,25.42757 24.5361328,25.7504883 L24.5361328,26.6586914 L20.5400391,26.6586914 Z M20.0405273,31.8354492 C20.0405273,31.361163 20.1086419,30.960044 20.244873,30.6320801 C20.3811042,30.3041162 20.5703113,30.0392263 20.8125,29.8374023 C21.0546887,29.6355784 21.3397607,29.4892583 21.6677246,29.3984375 C21.9956885,29.3076167 22.3463523,29.262207 22.7197266,29.262207 C23.0729184,29.262207 23.4084457,29.3076167 23.7263184,29.3984375 C24.044191,29.4892583 24.3242175,29.6355784 24.5664062,29.8374023 C24.808595,30.0392263 25.0003248,30.3041162 25.1416016,30.6320801 C25.2828783,30.960044 25.3535156,31.361163 25.3535156,31.8354492 C25.3535156,32.2895531 25.2828783,32.6780583 25.1416016,33.0009766 C25.0003248,33.3238948 24.808595,33.5913075 24.5664062,33.8032227 C24.3242175,34.0151378 24.044191,34.1690262 23.7263184,34.2648926 C23.4084457,34.3607589 23.0729184,34.4086914 22.7197266,34.4086914 C22.3463523,34.4086914 21.9956885,34.3607589 21.6677246,34.2648926 C21.3397607,34.1690262 21.0546887,34.0151378 20.8125,33.8032227 C20.5703113,33.5913075 20.3811042,33.3238948 20.244873,33.0009766 C20.1086419,32.6780583 20.0405273,32.2895531 20.0405273,31.8354492 Z" id="?" fill="#FFFFFF"></path>
            </g>
        </g>
    </g>
</svg>