<?xml version="1.0" encoding="UTF-8"?>
<svg width="16px" height="16px" viewBox="0 0 16 16" version="1.1" xmlns="http://www.w3.org/2000/svg" xmlns:xlink="http://www.w3.org/1999/xlink">
    <!-- Generator: Sketch 45.1 (43504) - http://www.bohemiancoding.com/sketch -->
    <title>ic-nimbus-16</title>
    <desc>Created with Sketch.</desc>
    <defs></defs>
    <g id="popups" stroke="none" stroke-width="1" fill="none" fill-rule="evenodd">
        <g id="selection" transform="translate(-257.000000, -164.000000)">
            <g id="menu">
                <g transform="translate(245.000000, 128.000000)">
                    <g id="ic-nimbus-16" transform="translate(12.000000, 36.000000)">
                        <g>
                            <path d="M14.872841,10 L15,10 L15,10.022613 C14.8359929,10.3050381 14.3469994,10.2749929 14.0042165,10.3619659 C13.3121525,10.5655618 12.6199408,10.7692369 11.9279506,10.9728328 C10.2180976,11.6773933 8.71190583,12.4920934 7.26693054,13.4615263 C6.73023386,13.8310035 6.19346335,14.2006389 5.65676668,14.5701161 C5.45347472,14.7065846 5.25771483,14.9331098 5,15 C5.04039255,14.7842278 5.20351349,14.4893893 5.4025225,14.4343591 C5.38841834,14.4870964 5.37431418,14.5399127 5.36013617,14.5927291 C5.81914917,14.2533761 6.27830986,13.9139441 6.73724902,13.5745912 C7.80635943,12.8535849 8.93727708,12.099766 10.1271221,11.5383946 C11.1209857,11.0694519 12.1221598,10.6519814 13.2415578,10.2940479 C13.7851958,10.1960846 14.3291292,10.0980423 14.872841,10 L14.872841,10 Z M5,16 C5.00718373,15.9504034 5.01429262,15.9006581 5.02147635,15.8510615 C5.12361995,15.7455478 5.3383086,15.753058 5.49380634,15.6595903 C5.91001347,15.4095252 6.2913496,15.0951407 6.71758401,14.8298323 C8.2136698,13.8984273 9.73774219,13.132617 11.5267893,12.4468156 C11.9689626,12.2773544 12.5182932,12.0356174 13.051161,12 C12.798234,12.3597427 11.3531826,12.6727888 10.861247,12.8723649 C9.44597815,13.4466297 8.10045129,14.1084136 6.86791845,14.8724393 C6.42559548,15.1464476 5.54057539,15.9643083 5,16 Z M7.1412742,0 C7.55570365,0.113649668 8.0752768,1.25331305 8.27133737,1.63803301 C8.67423384,2.42858432 9.11652764,3.23475806 9.40140053,4.13410342 C9.76144822,5.27067046 9.78501927,6.52032421 9.96643212,7.81973047 C10.090601,8.70929421 9.86154097,11.0962187 9.42396139,11.3884004 C9.18320002,11.5491285 8.89260273,11.610633 8.54248855,11.6809339 C7.46647042,11.8968331 7.00414124,11.3252773 6.57615844,10.8034037 C5.74940409,9.79540503 5.09362399,8.59029633 4.49685568,7.39081733 C4.20103908,6.79617975 3.93249755,5.86917847 3.36679251,5.49923648 C3.33665525,5.51225518 3.30651799,5.5252035 3.27638072,5.53822219 C3.19447135,6.06030695 3.3782413,6.62904788 3.27638072,7.19574805 C3.02551748,8.59198524 3.14800272,10.5969343 3.38943755,11.9539043 C3.49348687,12.538901 3.31165311,14.1899527 2.64358239,13.9820054 C2.07770898,13.7343688 2.27174918,12.0707206 2.14631756,11.3494147 C2.1237567,10.7774367 2.10111166,10.2053179 2.07855081,9.6333399 L2.07855081,4.69967765 C2.04176314,3.98632366 1.87045217,2.5439229 2.19160763,2.06708689 C2.93527405,2.08355378 3.68693779,3.81841772 3.99967503,4.34866555 C4.85092642,5.85003747 5.70234618,7.35190199 6.55359758,8.85327392 C7.06264793,9.71461877 7.46318731,10.6086863 8.38431001,11.1153597 C8.48532877,10.5660413 8.66943545,10.0157376 8.79116306,9.39928492 C8.88553141,8.92167483 8.90674535,8.22689888 8.81372391,7.74175906 C8.79116306,7.29975685 8.76851802,6.85768427 8.74595716,6.41568207 C8.53095557,5.3076154 8.45695933,4.23304548 8.15836472,3.21758746 C7.92896796,2.43752148 7.68702804,1.6540073 7.34474281,0.955501663 C7.24465006,0.751284118 6.91819111,0.37571243 7.0509466,0.0779714128 C7.08099968,0.052004399 7.11113694,0.0259670138 7.1412742,0 Z" id="btn_brand_logo-2" fill="#5A5A5A"></path>
                            <rect id="bounds" x="0" y="0" width="16" height="16"></rect>
                        </g>
                    </g>
                </g>
            </g>
        </g>
    </g>
</svg>