<?xml version="1.0" encoding="UTF-8"?>
<svg width="19px" height="22px" viewBox="0 0 19 22" version="1.1" xmlns="http://www.w3.org/2000/svg" xmlns:xlink="http://www.w3.org/1999/xlink">
    <!-- Generator: Sketch 40.3 (33839) - http://www.bohemiancoding.com/sketch -->
    <title>ic-nimubs-dark</title>
    <desc>Created with Sketch.</desc>
    <defs></defs>
    <g stroke="none" stroke-width="1" fill="none" fill-rule="evenodd">
        <g transform="translate(-69.000000, -75.000000)">
            <g transform="translate(69.000000, 75.000000)">
                <g>
                    <path d="M8.07402722,20.4197852 C7.48983036,20.7781675 6.96726895,21.2024997 6.39695833,21.5402286 C6.18403587,21.6664956 5.88974488,21.6564036 5.74990793,21.7988647 C5.7401632,21.865988 5.73017484,21.9328767 5.72043011,22 C6.46102996,21.9518871 7.67400585,20.8474031 8.27988474,20.4770513 C9.96889093,19.4453234 11.8125948,18.551832 13.751797,17.7761584 C14.4258891,17.5067263 16.4060192,17.0838023 16.7526882,16.5982143 C16.0225639,16.6463272 15.2697831,16.972556 14.6639042,17.2016202 C12.2123725,18.1277345 10.1240758,19.1618094 8.07402722,20.4197852 Z M18.9222675,14.7321429 C18.1671174,14.9647594 17.4117237,15.0247745 16.6565736,15.1480612 C15.1016808,15.5986395 13.7112689,16.1471493 12.3308477,16.7372975 C10.678241,17.4439866 9.10750931,18.4042277 7.62255135,19.3116649 C6.98509647,19.7389815 6.34739792,20.1718809 5.70994304,20.5989648 C5.72968075,20.5326691 5.74917478,20.4689322 5.76891249,20.4026365 C5.4923409,20.4717236 5.26572276,20.8443753 5.20967742,21.1160714 C5.5676366,21.0318642 5.83957836,20.7473742 6.12199816,20.5757032 C6.86740125,20.1104701 7.61280433,19.6457022 8.35820742,19.1804691 C10.3653618,17.9601627 12.4570715,16.934789 14.8319321,16.0480547 C15.7932316,15.7917112 16.7053086,15.5353678 17.6663645,15.279257 C18.1425062,15.1696946 18.7563246,15.2076111 19,14.852173 L19,14.7321429 L18.9222675,14.7321429 Z M8.03003749,16.6347744 C8.45683888,16.5347582 8.8110036,16.4471562 9.10447526,16.2183136 C9.63779419,15.8023213 9.91688476,12.4029425 9.76551773,11.1362271 C9.544439,9.28581077 9.51567683,7.50589764 9.07693182,5.88736893 C8.72983577,4.60659975 8.19066691,3.45863893 7.69976,2.33269573 C7.46088771,1.78483196 6.82763242,0.161852872 6.32258817,0 C6.28578234,0.0370083267 6.24922026,0.0740166533 6.21241442,0.11102498 C6.05056627,0.534981127 6.44860549,1.06996225 6.5704791,1.36087581 C6.9875306,2.35541603 7.28246475,3.47128735 7.56204281,4.58223984 C7.92595742,6.02837534 8.01614389,7.55859938 8.27817216,9.13660632 C8.3057156,9.7659821 8.33325904,10.3955921 8.36080247,11.0252021 C8.47414493,11.7159461 8.44830773,12.7053333 8.33325904,13.385537 C8.18481697,14.2634307 7.96056953,15.047164 7.83747718,15.8294919 C6.7150212,15.1078296 6.22679551,13.8345557 5.60645882,12.6081279 C4.56907063,10.469843 3.53143869,8.33108964 2.4940505,6.19303897 C2.11282983,5.43764749 1.14685958,2.96722457 0.240607393,2.94380158 C-0.150606904,3.62259987 0.0529220295,5.67679623 0.0529220295,6.69288561 L0.0529220295,13.7188462 C0.296669255,14.5334978 0.157977084,15.3481494 0.18552052,16.1628011 C0.338350031,17.1898993 0.126777439,19.5591349 0.816338341,19.9118851 C1.63045407,20.2079517 1.86469516,17.8567518 1.7379466,17.023596 C1.4437437,15.0911992 1.30066408,12.2359366 1.6063231,10.2475588 C1.73039044,9.44040252 1.50955545,8.63043547 1.60949181,7.88698972 C1.64629764,7.86848555 1.68456596,7.84998139 1.72112804,7.83147723 C2.41068894,8.35826031 2.73877271,9.67838011 3.09927486,10.5251213 C3.82637283,12.23336 4.62610748,13.9495626 5.63351476,15.3851578 C6.15513383,16.1281351 6.71867741,16.9423183 8.03003749,16.6347744 Z" fill="#5A5A5A"></path>
                    <rect x="0" y="0" width="19" height="22"></rect>
                </g>
            </g>
        </g>
    </g>
</svg>