<?xml version="1.0" encoding="UTF-8"?>
<svg width="16px" height="16px" viewBox="0 0 16 16" version="1.1" xmlns="http://www.w3.org/2000/svg" xmlns:xlink="http://www.w3.org/1999/xlink">
    <!-- Generator: Sketch 45.1 (43504) - http://www.bohemiancoding.com/sketch -->
    <title>ic-print-16</title>
    <desc>Created with Sketch.</desc>
    <defs></defs>
    <g id="Symbols" stroke="none" stroke-width="1" fill="none" fill-rule="evenodd">
        <g id="ic-print-16">
            <g id="ic-print">
                <g>
                    <rect id="bounds" x="0" y="0" width="16" height="16"></rect>
                    <path d="M4.00036387,2 L12.0003639,2 L12.0003639,3.99968434 L4.00036387,3.99968434 L4.00036387,2 L4.00036387,2 Z M15.000091,4.99989478 L0.999909033,4.99989478 C0.451540244,4.99825308 0.00480085216,5.44512713 0,6.00010522 L0,10.9996843 C0.00480085216,11.5546624 0.451540244,12.0015365 0.999909033,11.9998948 L4.00036387,11.9998948 L4.00036387,16 L12.0003639,16 L12.0003639,11.9998948 L15.000091,11.9998948 C15.5484598,12.0015365 15.9951991,11.5546624 16,10.9996843 L16,6.00010522 C15.9951991,5.44512713 15.5484598,4.99825308 15.000091,4.99989478 L15.000091,4.99989478 Z M10.9975439,14.9997896 L5.0002729,14.9997896 L5.0002729,9.99873737 L11.0004548,9.99873737 L11.0004548,14.9997896 L10.9975439,14.9997896 Z M14.9998711,6.98400742 C15.0063655,7.38984867 14.766888,7.75935408 14.3937809,7.91918348 C14.0206737,8.07901288 13.5879651,7.99745449 13.2986448,7.71276851 C13.0093244,7.42808252 12.9207965,6.99675352 13.0745905,6.62112399 C13.2283846,6.24549446 13.5939864,6.0000931 13.9998871,6.00004115 C14.2630594,5.99764454 14.516376,6.10003082 14.7039694,6.2846193 C14.8915627,6.46920778 14.998023,6.72083548 14.9998711,6.98400742 L14.9998711,6.98400742 Z" id="Shape" fill="#5A5A5A"></path>
                </g>
            </g>
        </g>
    </g>
</svg>