<?xml version="1.0" encoding="UTF-8"?>
<svg width="22px" height="22px" viewBox="0 0 22 22" version="1.1" xmlns="http://www.w3.org/2000/svg" xmlns:xlink="http://www.w3.org/1999/xlink">
    <!-- Generator: Sketch 40.3 (33839) - http://www.bohemiancoding.com/sketch -->
    <title>ic-plus-color</title>
    <desc>Created with Sketch.</desc>
    <defs></defs>
    <g stroke="none" stroke-width="1" fill="none" fill-rule="evenodd">
        <g transform="translate(-442.000000, -85.000000)" fill="#009FB7">
            <g transform="translate(442.000000, 85.000000)">
                <g>
                    <path d="M21.4343113,9.82141405 C21.4343113,9.01458273 20.7797123,8.35998374 19.972881,8.35998374 L13.6400163,8.35998374 L13.6400163,2.02711905 C13.6400163,1.22028773 12.9854173,0.565688734 12.1785859,0.565688734 L9.25572532,0.565688734 C8.448894,0.565688734 7.79429501,1.22028773 7.79429501,2.02711905 L7.79429501,8.35998374 L1.46143031,8.35998374 C0.654598995,8.35998374 0,9.01458273 0,9.82141405 L0,12.7442747 C0,13.551106 0.654598995,14.205705 1.46143031,14.205705 L7.79429501,14.205705 L7.79429501,20.5385697 C7.79429501,21.345401 8.448894,22 9.25572532,22 L12.1785859,22 C12.9854173,22 13.6400163,21.345401 13.6400163,20.5385697 L13.6400163,14.205705 L19.972881,14.205705 C20.7797123,14.205705 21.4343113,13.551106 21.4343113,12.7442747 L21.4343113,9.82141405 Z"></path>
                </g>
            </g>
        </g>
    </g>
</svg>