<?xml version="1.0" encoding="UTF-8"?>
<svg width="16px" height="16px" viewBox="0 0 16 16" version="1.1" xmlns="http://www.w3.org/2000/svg" xmlns:xlink="http://www.w3.org/1999/xlink">
    <!-- Generator: Sketch 40.3 (33839) - http://www.bohemiancoding.com/sketch -->
    <title>ic-quit-16</title>
    <desc>Created with Sketch.</desc>
    <defs></defs>
    <g stroke="none" stroke-width="1" fill="none" fill-rule="evenodd">
        <g transform="translate(-256.000000, -602.000000)">
            <g transform="translate(41.000000, 69.000000)">
                <g transform="translate(12.000000, 533.000000)">
                    <g transform="translate(203.000000, 0.000000)">
                        <g>
                            <rect x="0" y="0" width="16" height="16"></rect>
                            <path d="M1.13736168,8.13736168 C1.13736168,11.9272838 4.21007792,15 8,15 C11.7899221,15 14.8626383,11.9272838 14.8626383,8.13736168 C14.8626383,5.67054161 13.5498991,3.43166272 11.4594013,2.20941718 L10.5859601,3.70332891 C12.1509355,4.61831879 13.1321263,6.2917412 13.1321263,8.13736168 C13.1321263,10.9715484 10.8341867,13.269488 8,13.269488 C5.16581332,13.269488 2.86787371,10.9715484 2.86787371,8.13736168 C2.86787371,6.26367177 3.87944533,4.56828056 5.48192735,3.66424876 L4.63164191,2.15703725 C2.49063118,3.36487719 1.13736168,5.63295308 1.13736168,8.13736168 Z M7,5 L9,5 L9,-8.8817842e-16 L7,-8.8817842e-16 L7,5 Z" fill="#5A5A5A"></path>
                        </g>
                    </g>
                </g>
            </g>
        </g>
    </g>
</svg>