<?xml version="1.0" encoding="UTF-8"?>
<svg width="40px" height="40px" viewBox="0 0 40 40" version="1.1" xmlns="http://www.w3.org/2000/svg" xmlns:xlink="http://www.w3.org/1999/xlink">
    <!-- Generator: Sketch 40.3 (33839) - http://www.bohemiancoding.com/sketch -->
    <title>ic-slack-logo</title>
    <desc>Created with Sketch.</desc>
    <defs>
        <polygon id="path-1" points="0.117666004 39.9598566 30.2843836 39.9598566 30.2843836 0.012431534 0.117666004 0.012431534 0.117666004 39.9598566"></polygon>
    </defs>
    <g stroke="none" stroke-width="1" fill="none" fill-rule="evenodd">
        <g transform="translate(-486.000000, -74.000000)">
            <g transform="translate(486.000000, 74.000000)">
                <g>
                    <g transform="translate(4.526416, 0.020481)">
                        <mask id="mask-2" fill="white">
                            <use xlink:href="#path-1"></use>
                        </mask>
                        <g></g>
                        <path d="M21.0452495,2.47348694 C20.4458226,0.603297491 18.4642222,-0.420112647 16.6193842,0.187772657 C14.7742229,0.795330261 13.7645088,2.80380952 14.3642589,4.67367127 L23.4468367,32.9975218 C24.0705122,34.7444956 25.9324859,35.7262878 27.7197737,35.2049155 C29.5840106,34.6609319 30.7204644,32.6540911 30.125564,30.7983205 C30.1029319,30.7275371 21.0452495,2.47348694 21.0452495,2.47348694" fill="#DFA22F" mask="url(#mask-2)"></path>
                        <path d="M6.97197443,7.1081618 C6.37222426,5.23830005 4.39062385,4.21488991 2.54578588,4.82244752 C0.700624587,5.43000512 -0.309089573,7.43848438 0.290660592,9.30867384 L9.3732383,37.6325243 C9.99691381,39.3794982 11.8588875,40.3612903 13.6461753,39.8395904 C15.5104122,39.2959345 16.646866,37.2890937 16.0519656,35.4329954 C16.0293335,35.3625397 6.97197443,7.1081618 6.97197443,7.1081618" fill="#3CB187" mask="url(#mask-2)"></path>
                    </g>
                    <path d="M37.0041002,25.951787 C38.8492615,25.3442294 39.8586524,23.3357501 39.2592255,21.4655607 C38.6597987,19.5956989 36.6781983,18.5722888 34.8333603,19.1798464 L6.88855904,28.3859498 C5.16496436,29.0177573 4.19631126,30.9049872 4.71070615,32.7165182 C5.2474098,34.606042 7.22739364,35.7579109 9.05832905,35.1549411 C9.12816518,35.132002 37.0041002,25.951787 37.0041002,25.951787" fill="#CE1E5B"></path>
                    <path d="M12.7127636,33.9516231 C14.5317364,33.3525858 16.8760967,32.5805223 19.3918142,31.7520942 C18.8007936,29.9084485 18.0390624,27.5319611 17.2213976,24.9817921 L10.5420237,27.1823041 L12.7127636,33.9516231" fill="#392538"></path>
                    <g transform="translate(0.000000, 4.608295)">
                        <path d="M26.786362,24.7083257 C29.3114557,23.8769483 31.6584025,23.1039017 33.4654126,22.5087967 C32.8743919,20.665151 32.1123374,18.2880082 31.2946726,15.7371838 L24.6152987,17.9376959 L26.786362,24.7083257" fill="#BB242A"></path>
                        <path d="M32.4314498,7.07899642 C34.2762878,6.47143881 35.2860019,4.46295955 34.6865751,2.5927701 C34.0871482,0.722908346 32.1055478,-0.300501792 30.2603865,0.307055812 L2.31558527,9.51315924 C0.591990594,10.1449667 -0.376662503,12.0321966 0.138055698,13.8437276 C0.674436035,15.7332514 2.65441987,16.8851203 4.4856786,16.2821505 C4.55519142,16.2592115 32.4314498,7.07899642 32.4314498,7.07899642" fill="#72C5CD"></path>
                    </g>
                    <path d="M8.1388199,19.6874552 C9.95779264,19.0884178 12.3027996,18.3160266 14.8188405,17.4875986 C13.9985892,14.9279263 13.235888,12.5491449 12.6487472,10.7172965 L5.96775663,12.9181362 L8.1388199,19.6874552" fill="#238C73"></path>
                    <path d="M22.2120949,15.0527803 C24.7378353,14.2210753 27.0851054,13.4480287 28.8924388,12.852596 C28.0718642,10.292596 27.3091631,7.91315924 26.7216989,6.0809831 L20.0410317,8.28182284 L22.2120949,15.0527803" fill="#62803A"></path>
                </g>
            </g>
        </g>
    </g>
</svg>