<?xml version="1.0" encoding="UTF-8"?>
<svg width="22px" height="22px" viewBox="0 0 22 22" version="1.1" xmlns="http://www.w3.org/2000/svg" xmlns:xlink="http://www.w3.org/1999/xlink">
    <!-- Generator: Sketch 40.3 (33839) - http://www.bohemiancoding.com/sketch -->
    <title>ic-slack</title>
    <desc>Created with Sketch.</desc>
    <defs></defs>
    <g stroke="none" stroke-width="1" fill="none" fill-rule="evenodd">
        <g transform="translate(-343.000000, -86.000000)">
            <g transform="translate(343.000000, 86.000000)">
                <g>
                    <rect x="0" y="0" width="22" height="22"></rect>
                    <path d="M18.6484597,9.52679707 C18.4643077,9.52679707 18.2678789,9.56362747 18.0837269,9.62501147 L16.0703317,10.3125123 L14.7812676,6.43304338 L16.7087253,5.77009616 C17.3962261,5.53683696 17.9855125,4.89844334 17.9855125,4.13728172 C17.9855125,3.15513769 17.1629669,2.44308327 16.2053765,2.44308327 C16.0212245,2.44308327 15.8493493,2.46763687 15.677474,2.51674407 L13.6886324,3.19196809 L13.037962,1.21540323 C12.792426,0.491072014 12.1049251,0 11.3314867,0 C10.3616195,0 9.56362747,0.810268823 9.56362747,1.78013605 C9.56362747,1.97656486 9.60045787,2.17299366 9.66184187,2.35714567 L10.3247891,4.32143372 L6.51898099,5.61049776 L5.85603377,3.6462097 C5.61049776,2.90960168 4.93527374,2.43080647 4.16183532,2.43080647 C3.17969129,2.43080647 2.39397607,3.24107529 2.39397607,4.21094252 C2.39397607,4.40737133 2.43080647,4.60380013 2.49219047,4.78795214 L3.14286089,6.73996339 L1.21540323,7.39063381 C0.491072014,7.63616982 0,8.32367064 0,9.08483226 C0,10.0669763 0.761161622,10.8158611 1.74330565,10.8158611 C1.93973446,10.8158611 2.13616326,10.7790307 2.33259207,10.7176467 L4.24777292,10.0546995 L5.53683696,13.897338 L3.6216561,14.5480084 C2.89732488,14.7935444 2.40625287,15.4810452 2.40625287,16.2422069 C2.40625287,17.2366277 3.15513769,17.9732357 4.14955852,17.9732357 C4.35826412,17.9732357 4.56696973,17.9241285 4.76339854,17.8627445 L6.64174899,17.2120741 L7.31697301,19.2131925 C7.56250902,19.9498006 8.23773303,20.4285958 9.01117146,20.4285958 C9.99331548,20.4285958 10.7790307,19.6060502 10.7790307,18.6484597 C10.7790307,18.4520309 10.7422003,18.2556021 10.6808163,18.0714501 L10.0055923,16.0580549 L13.8114004,14.756714 L14.4866244,16.7823861 C14.7321604,17.5189941 15.4196612,17.9977893 16.1930997,17.9977893 C17.1629669,17.9977893 17.9486821,17.1875205 17.9486821,16.2176533 C17.9486821,16.0212245 17.9241285,15.8247957 17.8627445,15.6406436 L17.1752437,13.590418 L19.2868533,12.8660868 C20.0234614,12.608274 20.4285958,12.0558179 20.4285958,11.2701027 C20.4285958,10.2634051 19.6551574,9.52679707 18.6484597,9.52679707 L18.6484597,9.52679707 Z M8.90068025,12.7433188 L7.61161622,8.90068025 L11.4174243,7.58706262 L12.7064884,11.4542547 L8.90068025,12.7433188 Z" fill="#5A5A5A"></path>
                </g>
            </g>
        </g>
    </g>
</svg>