<?xml version="1.0" encoding="UTF-8"?>
<svg width="24px" height="24px" viewBox="0 0 24 24" version="1.1" xmlns="http://www.w3.org/2000/svg" xmlns:xlink="http://www.w3.org/1999/xlink">
    <!-- Generator: Sketch 40.3 (33839) - http://www.bohemiancoding.com/sketch -->
    <title>ic-sound</title>
    <desc>Created with Sketch.</desc>
    <defs></defs>
    <g stroke="none" stroke-width="1" fill="none" fill-rule="evenodd">
        <g transform="translate(-601.000000, -205.000000)">
            <g transform="translate(585.000000, 77.000000)">
                <g transform="translate(16.000000, 128.000000)">
                    <g>
                        <rect x="0" y="0" width="24" height="24"></rect>
                        <path d="M8.42857143,9 L2.99703014,9 C2.45303631,9 2,9.44358641 2,9.99077797 L2,14.009222 C2,14.5490248 2.4463856,15 2.99703014,15 L8.42857143,15 L13,19 L13,5 L8.42857143,9 Z M7.88888889,8 L2.9973917,8 C1.89585781,8 1,8.89458045 1,9.99810135 L1,14.0018986 C1,15.1132936 1.89426273,16 2.9973917,16 L7.88888889,16 L14,21 L14,3 L7.88888889,8 Z" fill="#5A5A5A"></path>
                        <path d="M22,12 C22,14.6250791 20.5420693,16.9839422 18.2829683,18.1843731 L18.2776455,19.2999105 C21.0615566,18.0480051 23,15.2503764 23,12 C23,8.77674535 21.0937712,5.9987143 18.3471568,4.73175013 L18.3418339,5.84731291 C20.5687561,7.05813787 22,9.39895795 22,12 Z" fill="#5A5A5A"></path>
                        <path d="M19,12 C19,13.925875 18.0858947,15.6924979 16.5866209,16.8108526 L16.5876174,18.0119874 C18.6315091,16.7896797 20,14.554654 20,12 C20,9.44119012 18.627053,7.20304921 16.577637,5.98205532 L16.5786335,7.1831909 C18.0825036,8.30110474 19,10.0705825 19,12 Z" fill="#5A5A5A"></path>
                        <path d="M16,12 C16,12.9601174 15.6264457,14.0356718 15.036029,14.92554 L15.036029,16.5 C16.1304064,15.4130819 17,13.6642802 17,12 C17,10.2404499 16.2425957,8.65780116 15.036029,7.56029565 L15.036029,9.04745618 C15.6546878,9.89113333 16,10.9171215 16,12 Z" fill="#5A5A5A"></path>
                    </g>
                </g>
            </g>
        </g>
    </g>
</svg>