<?xml version="1.0" encoding="UTF-8"?>
<svg width="16px" height="16px" viewBox="0 0 16 16" version="1.1" xmlns="http://www.w3.org/2000/svg" xmlns:xlink="http://www.w3.org/1999/xlink">
    <!-- Generator: Sketch 45.1 (43504) - http://www.bohemiancoding.com/sketch -->
    <title>ic-slack-16</title>
    <desc>Created with Sketch.</desc>
    <defs></defs>
    <g id="Symbols" stroke="none" stroke-width="1" fill="none" fill-rule="evenodd">
        <g id="ic-slack-16" fill="#5A5A5A">
            <g id="">
                <path d="M14.6057692,7.46153846 C14.4615385,7.46153846 14.3076923,7.49038462 14.1634615,7.53846154 L12.5865385,8.07692308 L11.5769231,5.03846154 L13.0865385,4.51923077 C13.625,4.33653846 14.0865385,3.83653846 14.0865385,3.24038462 C14.0865385,2.47115385 13.4423077,1.91346154 12.6923077,1.91346154 C12.5480769,1.91346154 12.4134615,1.93269231 12.2788462,1.97115385 L10.7211538,2.5 L10.2115385,0.951923077 C10.0192308,0.384615385 9.48076923,0 8.875,0 C8.11538462,0 7.49038462,0.634615385 7.49038462,1.39423077 C7.49038462,1.54807692 7.51923077,1.70192308 7.56730769,1.84615385 L8.08653846,3.38461538 L5.10576923,4.39423077 L4.58653846,2.85576923 C4.39423077,2.27884615 3.86538462,1.90384615 3.25961538,1.90384615 C2.49038462,1.90384615 1.875,2.53846154 1.875,3.29807692 C1.875,3.45192308 1.90384615,3.60576923 1.95192308,3.75 L2.46153846,5.27884615 L0.951923077,5.78846154 C0.384615385,5.98076923 0,6.51923077 0,7.11538462 C0,7.88461538 0.596153846,8.47115385 1.36538462,8.47115385 C1.51923077,8.47115385 1.67307692,8.44230769 1.82692308,8.39423077 L3.32692308,7.875 L4.33653846,10.8846154 L2.83653846,11.3942308 C2.26923077,11.5865385 1.88461538,12.125 1.88461538,12.7211538 C1.88461538,13.5 2.47115385,14.0769231 3.25,14.0769231 C3.41346154,14.0769231 3.57692308,14.0384615 3.73076923,13.9903846 L5.20192308,13.4807692 L5.73076923,15.0480769 C5.92307692,15.625 6.45192308,16 7.05769231,16 C7.82692308,16 8.44230769,15.3557692 8.44230769,14.6057692 C8.44230769,14.4519231 8.41346154,14.2980769 8.36538462,14.1538462 L7.83653846,12.5769231 L10.8173077,11.5576923 L11.3461538,13.1442308 C11.5384615,13.7211538 12.0769231,14.0961538 12.6826923,14.0961538 C13.4423077,14.0961538 14.0576923,13.4615385 14.0576923,12.7019231 C14.0576923,12.5480769 14.0384615,12.3942308 13.9903846,12.25 L13.4519231,10.6442308 L15.1057692,10.0769231 C15.6826923,9.875 16,9.44230769 16,8.82692308 C16,8.03846154 15.3942308,7.46153846 14.6057692,7.46153846 L14.6057692,7.46153846 Z M6.97115385,9.98076923 L5.96153846,6.97115385 L8.94230769,5.94230769 L9.95192308,8.97115385 L6.97115385,9.98076923 Z"></path>
            </g>
        </g>
    </g>
</svg>