<?xml version="1.0" encoding="UTF-8"?>
<svg width="155px" height="84px" viewBox="0 0 155 84" version="1.1" xmlns="http://www.w3.org/2000/svg" xmlns:xlink="http://www.w3.org/1999/xlink">
    <!-- Generator: Sketch 45.2 (43514) - http://www.bohemiancoding.com/sketch -->
    <title>ic_watermark</title>
    <desc>Created with Sketch.</desc>
    <defs></defs>
    <g id="Symbols" stroke="none" stroke-width="1" fill="none" fill-rule="evenodd">
        <g id="ic_watermark">
            <g>
                <g id="Group" transform="translate(20.000000, 0.000000)" fill-rule="nonzero">
                    <path d="M43,84 C19.2626577,84 0,65.2071633 0,42 C0,18.7928367 19.2626577,0 43,0 C66.7373423,0 86,18.7928367 86,42 C86,65.2071633 66.7373423,84 43,84 Z M43,80 C64.5500071,80 82,62.9756167 82,42 C82,21.0243833 64.5500071,4 43,4 C21.4499929,4 4,21.0243833 4,42 C4,62.9756167 21.4499929,80 43,80 Z" id="Oval" fill="#DEDEDE"></path>
                    <path d="M43.5,76 C24.4599217,76 9,61.0157682 9,42.5 C9,23.9842318 24.4599217,9 43.5,9 C62.5400783,9 78,23.9842318 78,42.5 C78,61.0157682 62.5400783,76 43.5,76 Z M43.5,72 C60.3584304,72 74,58.778171 74,42.5 C74,26.221829 60.3584304,13 43.5,13 C26.6415696,13 13,26.221829 13,42.5 C13,58.778171 26.6415696,72 43.5,72 Z" id="Oval" fill="#DEDEDE"></path>
                    <path d="M51.19552,27.5918226 C50.4615313,27.9759477 49.5551209,27.6923272 49.1709959,26.9583385 C48.7868708,26.2243498 49.0704913,25.3179394 49.80448,24.9338144 C59.3440058,19.9414065 68.9471577,17.4380045 78.5982839,17.4380045 C84.7678263,17.4380045 88.2600173,18.4752016 93.8905209,21.2554421 C94.1856855,21.4013 94.1856855,21.4013 94.4785859,21.5459893 C99.3191059,23.9349068 102.057313,24.7628185 106.894093,24.7628185 C112.031515,24.7628185 115.36637,23.7618305 120.439612,21.2555672 C120.602589,21.1750544 120.769349,21.0923206 120.988172,20.9834991 C121.262236,20.8471408 121.262236,20.8471408 121.536466,20.7107857 C121.985055,20.4879112 122.313277,20.3262495 122.638338,20.1687895 C126.55557,18.2712752 129.355279,17.4380045 133,17.4380045 C133.828427,17.4380045 134.5,18.1095773 134.5,18.9380045 C134.5,19.7664316 133.828427,20.4380045 133,20.4380045 C129.887974,20.4380045 127.491956,21.1511254 123.946182,22.868705 C123.631874,23.0209562 123.311679,23.1786645 122.871298,23.3974608 C122.598939,23.5328859 122.598939,23.5328859 122.324015,23.6696717 C122.103032,23.7795677 121.934111,23.8633729 121.768362,23.9452558 C116.318417,26.6376165 112.569735,27.7628185 106.894093,27.7628185 C101.516343,27.7628185 98.3676223,26.8107858 93.1508985,24.2362024 C92.8559052,24.0904793 92.8559052,24.0904793 92.562278,23.9453809 C87.308801,21.3513093 84.2337492,20.4380045 78.5982839,20.4380045 C69.4467687,20.4380045 60.3177313,22.8178118 51.19552,27.5918226 Z M51.69552,40.9166367 C50.9615313,41.3007617 50.0551209,41.0171412 49.6709959,40.2831525 C49.2868708,39.5491638 49.5704913,38.6427535 50.30448,38.2586284 C59.8440058,33.2662206 69.4471577,30.7628185 79.0982839,30.7628185 C85.2678263,30.7628185 88.7600173,31.8000156 94.3905209,34.5802561 C94.6856855,34.726114 94.6856855,34.726114 94.9785859,34.8708033 C99.8191059,37.2597209 102.557313,38.0876325 107.394093,38.0876325 C112.531515,38.0876325 115.86637,37.0866446 120.939612,34.5803812 C121.102589,34.4998684 121.269349,34.4171346 121.488172,34.3083131 C121.762236,34.1719548 121.762236,34.1719548 122.036466,34.0355998 C122.485055,33.8127253 122.813277,33.6510636 123.138338,33.4936035 C127.05557,31.5960893 129.855279,30.7628185 133.5,30.7628185 C134.328427,30.7628185 135,31.4343914 135,32.2628185 C135,33.0912456 134.328427,33.7628185 133.5,33.7628185 C130.387974,33.7628185 127.991956,34.4759394 124.446182,36.193519 C124.131874,36.3457703 123.811679,36.5034785 123.371298,36.7222749 C123.098939,36.8576999 123.098939,36.8576999 122.824015,36.9944857 C122.603032,37.1043818 122.434111,37.1881869 122.268362,37.2700698 C116.818417,39.9624305 113.069735,41.0876325 107.394093,41.0876325 C102.016343,41.0876325 98.8676223,40.1355999 93.6508985,37.5610164 C93.3559052,37.4152934 93.3559052,37.4152934 93.062278,37.2701949 C87.808801,34.6761233 84.7337492,33.7628185 79.0982839,33.7628185 C69.9467687,33.7628185 60.8177313,36.1426258 51.69552,40.9166367 Z M51.69552,54.2414507 C50.9615313,54.6255758 50.0551209,54.3419552 49.6709959,53.6079665 C49.2868708,52.8739778 49.5704913,51.9675675 50.30448,51.5834424 C59.8440058,46.5910346 69.4471577,44.0876325 79.0982839,44.0876325 C85.2678263,44.0876325 88.7600173,45.1248296 94.3905209,47.9050702 C94.6856855,48.0509281 94.6856855,48.0509281 94.9785859,48.1956173 C99.8191059,50.5845349 102.557313,51.4124466 107.394093,51.4124466 C112.531515,51.4124466 115.86637,50.4114586 120.939612,47.9051952 C121.102589,47.8246824 121.269349,47.7419487 121.488172,47.6331271 C121.762236,47.4967688 121.762236,47.4967688 122.036466,47.3604138 C122.485055,47.1375393 122.813277,46.9758776 123.138338,46.8184175 C127.05557,44.9209033 129.855279,44.0876325 133.5,44.0876325 C134.328427,44.0876325 135,44.7592054 135,45.5876325 C135,46.4160597 134.328427,47.0876325 133.5,47.0876325 C130.387974,47.0876325 127.991956,47.8007534 124.446182,49.518333 C124.131874,49.6705843 123.811679,49.8282925 123.371298,50.0470889 C123.098939,50.1825139 123.098939,50.1825139 122.824015,50.3192998 C122.603032,50.4291958 122.434111,50.5130009 122.268362,50.5948839 C116.818417,53.2872445 113.069735,54.4124466 107.394093,54.4124466 C102.016343,54.4124466 98.8676223,53.4604139 93.6508985,50.8858304 C93.3559052,50.7401074 93.3559052,50.7401074 93.062278,50.5950089 C87.808801,48.0009373 84.7337492,47.0876325 79.0982839,47.0876325 C69.9467687,47.0876325 60.8177313,49.4674398 51.69552,54.2414507 Z M51.69552,67.5662647 C50.9615313,67.9503898 50.0551209,67.6667693 49.6709959,66.9327806 C49.2868708,66.1987918 49.5704913,65.2923815 50.30448,64.9082565 C59.8440058,59.9158486 69.4471577,57.4124466 79.0982839,57.4124466 C85.2678263,57.4124466 88.7600173,58.4496436 94.3905209,61.2298842 C94.6856855,61.3757421 94.6856855,61.3757421 94.9785859,61.5204314 C99.8191059,63.9093489 102.557313,64.7372606 107.394093,64.7372606 C112.531515,64.7372606 115.86637,63.7362726 120.939612,61.2300093 C121.102589,61.1494965 121.269349,61.0667627 121.488172,60.9579411 C121.762236,60.8215829 121.762236,60.8215829 122.036466,60.6852278 C122.485055,60.4623533 122.813277,60.3006916 123.138338,60.1432315 C127.05557,58.2457173 129.855279,57.4124466 133.5,57.4124466 C134.328427,57.4124466 135,58.0840194 135,58.9124466 C135,59.7408737 134.328427,60.4124466 133.5,60.4124466 C130.387974,60.4124466 127.991956,61.1255674 124.446182,62.8431471 C124.131874,62.9953983 123.811679,63.1531066 123.371298,63.3719029 C123.098939,63.507328 123.098939,63.507328 122.824015,63.6441138 C122.603032,63.7540098 122.434111,63.837815 122.268362,63.9196979 C116.818417,66.6120586 113.069735,67.7372606 107.394093,67.7372606 C102.016343,67.7372606 98.8676223,66.7852279 93.6508985,64.2106444 C93.3559052,64.0649214 93.3559052,64.0649214 93.062278,63.919823 C87.808801,61.3257514 84.7337492,60.4124466 79.0982839,60.4124466 C69.9467687,60.4124466 60.8177313,62.7922539 51.69552,67.5662647 Z" id="Combined-Shape" fill="#5A5A5A"></path>
                </g>
                <g id="Group-4" transform="translate(0.000000, 4.000000)">
                    <rect id="Rectangle" fill="#13A3EE" x="0" y="0.4" width="44" height="18.4" rx="4"></rect>
                    <path d="M14.8515625,15 L11.7734375,15 L6.8046875,6.359375 L6.734375,6.359375 C6.83333383,7.8854243 6.8828125,8.97395508 6.8828125,9.625 L6.8828125,15 L4.71875,15 L4.71875,3.578125 L7.7734375,3.578125 L12.734375,12.1328125 L12.7890625,12.1328125 C12.7109371,10.6484301 12.671875,9.59896141 12.671875,8.984375 L12.671875,3.578125 L14.8515625,3.578125 L14.8515625,15 Z M24.3046875,15 L17.7265625,15 L17.7265625,3.578125 L24.3046875,3.578125 L24.3046875,5.5625 L20.1484375,5.5625 L20.1484375,8.0703125 L24.015625,8.0703125 L24.015625,10.0546875 L20.1484375,10.0546875 L20.1484375,13 L24.3046875,13 L24.3046875,15 Z M37.8125,15 L35.0546875,15 L33.5078125,9 C33.4505205,8.78645727 33.3528653,8.34505543 33.2148438,7.67578125 C33.0768222,7.00650707 32.9973959,6.55729281 32.9765625,6.328125 C32.9453123,6.60937641 32.8671881,7.0611948 32.7421875,7.68359375 C32.6171869,8.3059927 32.5208337,8.74999867 32.453125,9.015625 L30.9140625,15 L28.1640625,15 L25.25,3.578125 L27.6328125,3.578125 L29.09375,9.8125 C29.3489596,10.9635474 29.5338536,11.9609333 29.6484375,12.8046875 C29.6796877,12.507811 29.7513015,12.0481802 29.8632812,11.4257812 C29.975261,10.8033823 30.0807287,10.3203142 30.1796875,9.9765625 L31.84375,3.578125 L34.1328125,3.578125 L35.796875,9.9765625 C35.869792,10.2630223 35.960937,10.7005179 36.0703125,11.2890625 C36.179688,11.8776071 36.2630205,12.3828104 36.3203125,12.8046875 C36.3723961,12.3984355 36.4557286,11.8919301 36.5703125,11.2851562 C36.6848964,10.6783824 36.789062,10.1875019 36.8828125,9.8125 L38.3359375,3.578125 L40.71875,3.578125 L37.8125,15 Z" id="NEW" fill="#FFFFFF"></path>
                </g>
            </g>
        </g>
    </g>
</svg>