<?xml version="1.0" encoding="UTF-8" standalone="no"?>
<svg width="40px" height="40px" viewBox="0 0 40 40" version="1.1" xmlns="http://www.w3.org/2000/svg" xmlns:xlink="http://www.w3.org/1999/xlink">
    <!-- Generator: Sketch 3.7.2 (28276) - http://www.bohemiancoding.com/sketch -->
    <title>btn_cancel_normal</title>
    <desc>Created with Sketch.</desc>
    <defs></defs>
    <g id="icons" stroke="none" stroke-width="1" fill="none" fill-rule="evenodd">
        <g transform="translate(-32.000000, -153.000000)" id="btn_cancel_normal">
            <g transform="translate(31.000000, 152.000000)">
                <path d="M21,1 C9.95352539,1 1,9.95277438 1,21 C1,32.0464746 9.95277438,41 21,41 C32.0464746,41 41,32.0472256 41,21 C41,9.95352538 32.0472256,0.999999997 21,1 L21,1 Z M21,2.95121951 C30.9695602,2.95121951 39.0487805,11.0311175 39.0487805,21 C39.0487805,30.9695602 30.9688825,39.0487805 21,39.0487805 C11.0304398,39.0487805 2.95121951,30.9688825 2.95121951,21 C2.95121951,11.0304398 11.0311175,2.95121951 21,2.95121951 L21,2.95121951 Z" id="btn_play_pause_normal" fill="#494949" fill-rule="evenodd"></path>
                <path d="M23.0876024,21 L26.5632927,17.5243098 C27.1465071,16.9410953 27.1434153,16.0095357 26.5669398,15.4330602 C25.9864452,14.8525656 25.05418,14.8582176 24.4756902,15.4367073 L21,18.9123976 L17.5243098,15.4367073 C16.9410953,14.8534929 16.0095357,14.8565847 15.4330602,15.4330602 C14.8525656,16.0135548 14.8582176,16.94582 15.4367073,17.5243098 L18.9123976,21 L15.4367073,24.4756902 C14.8534929,25.0589047 14.8565847,25.9904643 15.4330602,26.5669398 C16.0135548,27.1474344 16.94582,27.1417824 17.5243098,26.5632927 L21,23.0876024 L24.4756902,26.5632927 C25.0589047,27.1465071 25.9904643,27.1434153 26.5669398,26.5669398 C27.1474344,25.9864452 27.1417824,25.05418 26.5632927,24.4756902 L23.0876024,21 Z" id="Rectangle-99" fill="#F7F7F7" fill-rule="evenodd"></path>
                <rect id="bounds" x="0" y="0" width="42" height="42"></rect>
            </g>
        </g>
    </g>
</svg>