<?xml version="1.0" encoding="UTF-8"?>
<svg width="24px" height="24px" viewBox="0 0 24 24" version="1.1" xmlns="http://www.w3.org/2000/svg" xmlns:xlink="http://www.w3.org/1999/xlink">
    <!-- Generator: Sketch 40.3 (33839) - http://www.bohemiancoding.com/sketch -->
    <title>ic-android-version-24</title>
    <desc>Created with Sketch.</desc>
    <defs></defs>
    <g stroke="none" stroke-width="1" fill="none" fill-rule="evenodd">
        <g transform="translate(-65.000000, -524.000000)">
            <g transform="translate(41.000000, 69.000000)">
                <g transform="translate(12.000000, 449.000000)">
                    <g transform="translate(12.000000, 6.000000)">
                        <g>
                            <rect x="0" y="0" width="24" height="24"></rect>
                            <path d="M8.45305563,2.16016241 C6.96558373,3.25212041 6,5.01329812 6,7 L18,7 C18,5.01329812 17.0344163,3.25212041 15.5469444,2.16016241 L16.3535534,1.35355339 C16.5488155,1.15829124 16.5488155,0.841708755 16.3535534,0.646446609 C16.1582912,0.451184464 15.8417088,0.451184464 15.6464466,0.646446609 L14.6683677,1.62452547 C13.8646391,1.22478777 12.9585705,1 12,1 C11.0414295,1 10.1353609,1.22478777 9.33163225,1.62452547 L8.35355339,0.646446609 C8.15829124,0.451184464 7.84170876,0.451184464 7.64644661,0.646446609 C7.45118446,0.841708755 7.45118446,1.15829124 7.64644661,1.35355339 L8.45305563,2.16016241 Z M9,18 L8.0085302,18 C6.8992496,18 6,17.1125667 6,16.000385 L6,8 L18,8 L18,16.000385 C18,17.1047419 17.0980496,18 15.9914698,18 L15,18 L15,21.0001925 C15,21.5523709 14.5561352,22 14,22 C13.4477153,22 13,21.5562834 13,21.0001925 L13,18 L11,18 L11,21.0001925 C11,21.5523709 10.5561352,22 10,22 C9.44771525,22 9,21.5562834 9,21.0001925 L9,18 Z M19,8.99703014 C19,8.4463856 19.4438648,8 20,8 C20.5522847,8 21,8.45303631 21,8.99703014 L21,15.0029699 C21,15.5536144 20.5561352,16 20,16 C19.4477153,16 19,15.5469637 19,15.0029699 L19,8.99703014 Z M3,8.99703014 C3,8.4463856 3.44386482,8 4,8 C4.55228475,8 5,8.45303631 5,8.99703014 L5,15.0029699 C5,15.5536144 4.55613518,16 4,16 C3.44771525,16 3,15.5469637 3,15.0029699 L3,8.99703014 Z M14.5,5 C14.7761424,5 15,4.77614237 15,4.5 C15,4.22385763 14.7761424,4 14.5,4 C14.2238576,4 14,4.22385763 14,4.5 C14,4.77614237 14.2238576,5 14.5,5 Z M9.5,5 C9.77614237,5 10,4.77614237 10,4.5 C10,4.22385763 9.77614237,4 9.5,4 C9.22385763,4 9,4.22385763 9,4.5 C9,4.77614237 9.22385763,5 9.5,5 Z" fill="#D1D1D1"></path>
                        </g>
                    </g>
                </g>
            </g>
        </g>
    </g>
</svg>