<?xml version="1.0" encoding="UTF-8"?>
<svg width="16px" height="16px" viewBox="0 0 16 16" version="1.1" xmlns="http://www.w3.org/2000/svg" xmlns:xlink="http://www.w3.org/1999/xlink">
    <!-- Generator: Sketch 40.3 (33839) - http://www.bohemiancoding.com/sketch -->
    <title>ic-ask</title>
    <desc>Created with Sketch.</desc>
    <defs></defs>
    <g stroke="none" stroke-width="1" fill="none" fill-rule="evenodd">
        <g transform="translate(-780.000000, -353.000000)">
            <g transform="translate(585.000000, 77.000000)">
                <g transform="translate(195.000000, 276.000000)">
                    <g>
                        <path d="M8,16 C12.418278,16 16,12.418278 16,8 C16,3.581722 12.418278,0 8,0 C3.581722,0 0,3.581722 0,8 C0,12.418278 3.581722,16 8,16 L8,16 Z M8,14 C4.67004783,14 1.97058824,11.3005404 1.97058824,7.97058824 C1.97058824,4.64063607 4.67004783,1.94117647 8,1.94117647 C11.3299522,1.94117647 14.0294118,4.64063607 14.0294118,7.97058824 C14.0294118,11.3005404 11.3299522,14 8,14 L8,14 Z" fill="#5A5A5A"></path>
                        <path d="M7.1171875,9.15820312 L7.1171875,8.72460938 C7.1171875,8.3496075 7.19726482,8.02343889 7.35742188,7.74609375 C7.51757893,7.46874861 7.81054475,7.17382969 8.23632812,6.86132812 C8.64648643,6.56835791 8.91699153,6.33007904 9.04785156,6.14648438 C9.17871159,5.96288971 9.24414062,5.75781363 9.24414062,5.53125 C9.24414062,5.27734248 9.15039156,5.08398504 8.96289062,4.95117188 C8.77538969,4.81835871 8.51367355,4.75195312 8.17773438,4.75195312 C7.59179395,4.75195312 6.92383187,4.94335746 6.17382812,5.32617188 L5.53515625,4.04296875 C6.40625436,3.55468506 7.33007324,3.31054688 8.30664062,3.31054688 C9.11133215,3.31054688 9.75097419,3.50390432 10.2255859,3.890625 C10.7001977,4.27734568 10.9375,4.79296553 10.9375,5.4375 C10.9375,5.86718965 10.8398447,6.23827969 10.6445312,6.55078125 C10.4492178,6.86328281 10.0781277,7.2148418 9.53125,7.60546875 C9.15624812,7.88281389 8.91894581,8.09374928 8.81933594,8.23828125 C8.71972606,8.38281322 8.66992188,8.57226445 8.66992188,8.80664062 L8.66992188,9.15820312 L7.1171875,9.15820312 Z M6.9296875,11.1621094 C6.9296875,10.8339827 7.01757725,10.5859383 7.19335938,10.4179688 C7.3691415,10.2499992 7.62499832,10.1660156 7.9609375,10.1660156 C8.28515787,10.1660156 8.53613192,10.2519523 8.71386719,10.4238281 C8.89160245,10.595704 8.98046875,10.8417953 8.98046875,11.1621094 C8.98046875,11.4707047 8.8906259,11.7138663 8.7109375,11.8916016 C8.5312491,12.0693368 8.2812516,12.1582031 7.9609375,12.1582031 C7.63281086,12.1582031 7.37890715,12.0712899 7.19921875,11.8974609 C7.01953035,11.7236319 6.9296875,11.4785172 6.9296875,11.1621094 L6.9296875,11.1621094 Z" fill="#5A5A5A"></path>
                        <rect x="0" y="0" width="16" height="16"></rect>
                    </g>
                </g>
            </g>
        </g>
    </g>
</svg>