<?xml version="1.0" encoding="UTF-8" standalone="no"?>
<svg width="16px" height="16px" viewBox="0 0 16 16" version="1.1" xmlns="http://www.w3.org/2000/svg" xmlns:xlink="http://www.w3.org/1999/xlink">
    <!-- Generator: Sketch 3.7.2 (28276) - http://www.bohemiancoding.com/sketch -->
    <title>ic-blur-all</title>
    <desc>Created with Sketch.</desc>
    <defs>
        <path d="M11.293,9.9 L11.293,9.867 L11.293,9.8 C11.146,4.871 5.65,0.008 5.65,0.008 C5.65,0.008 0.15,4.871 0.007,9.801 L0.007,9.868 L0.007,9.9 L0.007,10 L0.007,10.111 L0.007,10.12 C-0.0802882127,12.1934398 0.976144294,14.1478485 2.75865771,15.2105892 C4.54117112,16.2733299 6.76282888,16.2733299 8.54534229,15.2105892 C10.3278557,14.1478485 11.3842882,12.1934398 11.297,10.12 L11.297,10.111 L11.297,10.001 C11.297,9.964 11.293,9.931 11.293,9.9 L11.293,9.9 Z M9.41,10.076 L9.41,10.082 C9.39826194,11.1152454 8.99558003,12.1056929 8.283,12.854 C7.46955483,13.7224487 6.28022394,14.1339819 5.104,13.954 C7.25794641,12.5526555 8.54613386,10.147536 8.519,7.578 C8.51936417,7.27726769 8.50233574,6.97676599 8.468,6.678 C9.01063648,7.6559897 9.33186957,8.74121817 9.409,9.857 L9.409,9.857 L9.409,9.902 L9.409,9.924 L9.409,9.993 C9.409,10.016 9.411,10.048 9.41,10.073 L9.41,10.076 Z M16,4.658 L16,4.642 L16,4.611 C15.939,2.291 13.649,0.002 13.649,0.002 C13.649,0.002 11.359,2.291 11.298,4.611 L11.298,4.642 L11.298,4.762 C11.141001,5.6955543 11.5514835,6.63351369 12.3437799,7.15162446 C13.1360763,7.66973523 14.1599237,7.66973523 14.9522201,7.15162446 C15.7445165,6.63351369 16.154999,5.6955543 15.998,4.762 L15.998,4.762 L15.998,4.71 C15.998,4.692 16,4.673 16,4.658 L16,4.658 Z M15.216,4.74 L15.216,4.74 C15.2147304,5.21622244 15.0486627,5.67732525 14.746,6.045 C14.4780926,6.37962684 14.0746176,6.5769628 13.646,6.583 C13.5702588,6.58321701 13.4946418,6.57685982 13.42,6.564 C14.3451865,5.84781012 14.8736952,4.7335964 14.843,3.564 C14.8427571,3.42272049 14.8354145,3.28154245 14.821,3.141 C15.0496442,3.61018814 15.1832082,4.11997453 15.214,4.641 L15.214,4.641 L15.214,4.672 L15.214,4.704 C15.214,4.715 15.215,4.729 15.215,4.74 L15.216,4.74 Z" id="path-1"></path>
        <filter x="-50%" y="-50%" width="200%" height="200%" filterUnits="objectBoundingBox" id="filter-2">
            <feGaussianBlur stdDeviation="1.5" in="SourceAlpha" result="shadowBlurInner1"></feGaussianBlur>
            <feOffset dx="0" dy="1" in="shadowBlurInner1" result="shadowOffsetInner1"></feOffset>
            <feComposite in="shadowOffsetInner1" in2="SourceAlpha" operator="arithmetic" k2="-1" k3="1" result="shadowInnerInner1"></feComposite>
            <feColorMatrix values="0 0 0 0 0   0 0 0 0 0   0 0 0 0 0  0 0 0 0.5 0" type="matrix" in="shadowInnerInner1"></feColorMatrix>
        </filter>
    </defs>
    <g id="icons" stroke="none" stroke-width="1" fill="none" fill-rule="evenodd">
        <g transform="translate(-301.000000, -74.000000)" id="ic-blur-all">
            <g transform="translate(301.000000, 74.000000)">
                <rect id="bounds" x="0" y="0" width="16" height="16"></rect>
                <g id="Shape_13_copy_2">
                    <use fill="#6D6C6D" fill-rule="evenodd" xlink:href="#path-1"></use>
                    <use fill="black" fill-opacity="1" filter="url(#filter-2)" xlink:href="#path-1"></use>
                </g>
            </g>
        </g>
    </g>
</svg>