<?xml version="1.0" encoding="UTF-8" standalone="no"?>
<svg width="16px" height="16px" viewBox="0 0 16 16" version="1.1" xmlns="http://www.w3.org/2000/svg" xmlns:xlink="http://www.w3.org/1999/xlink">
    <!-- Generator: Sketch 3.7.2 (28276) - http://www.bohemiancoding.com/sketch -->
    <title>ic-blur</title>
    <desc>Created with Sketch.</desc>
    <defs>
        <path d="M14,9.9 L14,9.864 L14,9.797 C13.843,4.868 8,0.005 8,0.005 C8,0.005 2.161,4.868 2,9.798 L2,9.865 L2,9.9 L2,10 L2,10.11 L2,10.119 C2,13.4327085 4.6862915,16.119 8,16.119 C11.3137085,16.119 14,13.4327085 14,10.119 L14,10.109 L14,9.998 C14,9.96 14,9.931 14,9.9 L14,9.9 Z M12,10.075 L12,10.082 C11.9553611,12.2590507 10.1775082,14.0004576 8,14 C7.80693863,14.0000088 7.61412034,13.9863077 7.423,13.959 C9.95189507,12.4563672 11.354882,9.60214974 11,6.682 C11.5738023,7.65083447 11.9160334,8.73912916 12,9.862 L12,9.862 L12,9.906 L12,9.93 L12,9.999 C12,10.022 12,10.048 12,10.073 L12,10.075 Z" id="path-1"></path>
        <filter x="-50%" y="-50%" width="200%" height="200%" filterUnits="objectBoundingBox" id="filter-2">
            <feGaussianBlur stdDeviation="1.5" in="SourceAlpha" result="shadowBlurInner1"></feGaussianBlur>
            <feOffset dx="0" dy="1" in="shadowBlurInner1" result="shadowOffsetInner1"></feOffset>
            <feComposite in="shadowOffsetInner1" in2="SourceAlpha" operator="arithmetic" k2="-1" k3="1" result="shadowInnerInner1"></feComposite>
            <feColorMatrix values="0 0 0 0 0   0 0 0 0 0   0 0 0 0 0  0 0 0 0.5 0" type="matrix" in="shadowInnerInner1"></feColorMatrix>
        </filter>
    </defs>
    <g id="icons" stroke="none" stroke-width="1" fill="none" fill-rule="evenodd">
        <g transform="translate(-272.000000, -74.000000)" id="ic-blur">
            <g transform="translate(272.000000, 74.000000)">
                <rect id="bounds" x="0" y="0" width="16" height="16"></rect>
                <g id="Shape">
                    <use fill="#6D6C6D" fill-rule="evenodd" xlink:href="#path-1"></use>
                    <use fill="black" fill-opacity="1" filter="url(#filter-2)" xlink:href="#path-1"></use>
                </g>
            </g>
        </g>
    </g>
</svg>