<svg xmlns="http://www.w3.org/2000/svg" width="24" height="24" viewBox="0 0 24 24">
  <g fill="none" fill-rule="evenodd">
    <rect width="24" height="24"/>
    <path fill="#5A5A5A" fill-rule="nonzero" d="M2,4.71890467 C2,3.21539709 3.26108338,2 4.82202262,2 L13.853905,2 L18,7.13965088 L18,19.279769 C18,20.7816839 16.7382189,22 15.184109,22 L4.815891,22 C3.26256788,22 2,20.7782216 2,19.2810953 L2,4.71890467 Z"/>
    <path fill="#D8D8D8" d="M3,4.99508929 C3,3.8932319 3.89313939,3 5.00388884,3 L13.2666667,3 L17,7.5 L17,19.0080285 C17,20.108164 16.1029399,21 14.9941413,21 L5.00585866,21 C3.89805351,21 3,20.1073772 3,19.0049107 L3,4.99508929 Z"/>
    <rect width="11" height="1" x="5" y="11" fill="#FFFFFF"/>
    <rect width="7" height="1" x="5" y="13" fill="#FFFFFF"/>
    <rect width="7" height="1" x="5" y="15" fill="#FFFFFF"/>
    <rect width="3" height="1" x="5" y="17" fill="#FFFFFF"/>
    <path fill="#5A5A5A" d="M13,2 L15.9951185,2 C17.102384,2 18,2.89826062 18,3.99791312 L18,8 L13,2 Z" transform="rotate(180 15.5 5)"/>
    <g transform="translate(7 11)">
      <path fill="#5A5A5A" fill-rule="nonzero" d="M0,2.57874017 C0,1.15456747 1.34474358,0 3.00585866,0 L12.9941413,0 C14.653807,0 16,1.1564897 16,2.57874017 L16,9.42125983 C16,10.8454325 14.6552564,12 12.9941413,12 L3.00585866,12 C1.34619302,12 0,10.8435103 0,9.42125983 L0,2.57874017 Z"/>
      <path fill="#FFFFFF" d="M1,2.67377517 L1,9.32622483 C1,10.2483747 1.89805351,11 3.00585866,11 L12.9941413,11 C14.1029399,11 15,10.2506253 15,9.32622483 L15,2.67377517 C15,1.7516253 14.1019465,1 12.9941413,1 L3.00585866,1 C1.89706013,1 1,1.74937467 1,2.67377517 Z"/>
      <path fill="#5A5A5A" d="M8,10 C5.790861,10 4,8.209139 4,6 C4,3.790861 5.790861,2 8,2 C10.209139,2 12,3.790861 12,6 C12,8.209139 10.209139,10 8,10 Z"/>
      <circle cx="3" cy="3" r="1" fill="#5A5A5A"/>
      <path fill="#D8D8D8" fill-rule="nonzero" d="M8,9 C9.65685425,9 11,7.65685425 11,6 C11,4.34314575 9.65685425,3 8,3 C6.34314575,3 5,4.34314575 5,6 C5,7.65685425 6.34314575,9 8,9 Z"/>
      <circle cx="8" cy="6" r="1" fill="#FFFFFF"/>
    </g>
  </g>
</svg>
