<?xml version="1.0" encoding="UTF-8" standalone="no"?>
<svg width="16px" height="16px" viewBox="0 0 16 16" version="1.1" xmlns="http://www.w3.org/2000/svg" xmlns:xlink="http://www.w3.org/1999/xlink">
    <!-- Generator: Sketch 3.7.2 (28276) - http://www.bohemiancoding.com/sketch -->
    <title>ic-color</title>
    <desc>Created with Sketch.</desc>
    <defs></defs>
    <g id="icons" stroke="none" stroke-width="1" fill="none" fill-rule="evenodd">
        <g transform="translate(-172.000000, -75.000000)" id="ic-color">
            <g transform="translate(172.000000, 75.000000)">
                <rect id="bounds" x="0" y="0" width="16" height="16"></rect>
                <path d="M2,8 L2,8 C2,11.3081704 4.68974164,14 8,14 C11.3081704,14 14,11.3102584 14,8 C14,4.69182956 11.3102584,2 8,2 C4.69182956,2 2,4.68974164 2,8 L2,8 Z M0,8 C0,3.581722 3.59071231,0 8,0 C12.418278,0 16,3.59071231 16,8 C16,12.418278 12.4092877,16 8,16 C3.581722,16 0,12.4092877 0,8 L0,8 Z" id="color" fill="#535253" fill-rule="evenodd"></path>
            </g>
        </g>
    </g>
</svg>