<?xml version="1.0" encoding="UTF-8" standalone="no"?>
<svg width="163px" height="103px" viewBox="0 0 163 103" version="1.1" xmlns="http://www.w3.org/2000/svg" xmlns:xlink="http://www.w3.org/1999/xlink">
    <!-- Generator: Sketch 3.8.2 (29753) - http://www.bohemiancoding.com/sketch -->
    <title>ic-cloud-nimbus</title>
    <desc>Created with Sketch.</desc>
    <defs></defs>
    <g id="icons" stroke="none" stroke-width="1" fill="none" fill-rule="evenodd">
        <g transform="translate(-476.000000, -112.000000)" id="ic-cloud-nimbus" fill="#E4E3E3">
            <g transform="translate(476.000000, 112.000000)">
                <path d="M134.519,41.837 C134.519,41.772 134.53,41.719 134.53,41.66 C134.53,18.651 116.247,0 93.703,0 C75.7675614,0.11344417 59.9942073,11.8880339 54.786,29.051 C52.7323935,28.6113218 50.6381467,28.3894282 48.538,28.389 C31.678,28.389 18.005,44.07 18.005,61.279 C18.005,62.36 18.059,60.169 18.166,66.216 L18.035,66.216 C13.2137702,66.2415836 8.60126732,68.1863529 5.21714415,71.6203916 C1.83302098,75.0544303 -0.0440074469,79.6949124 0.001,84.516 C0.001,93.552 5.774,102.505 14.777,102.505 L145.067,102.505 C155.511,96.457 162.84,85.705 162.84,73.365 C162.84,57.181 150.242,42.4 134.519,41.837 Z M94.1480544,80.8395705 C92.9796607,81.556335 91.9345379,82.4049993 90.7939167,83.0804572 C90.3680717,83.3329912 89.7794898,83.3128072 89.4998159,83.5977294 C89.4803264,83.731976 89.4603497,83.8657533 89.4408602,84 C90.9220599,83.9037742 93.3480117,81.6948063 94.5597695,80.9541026 C97.9377819,78.8906467 101.62519,77.1036639 105.503594,75.5523169 C106.851778,75.0134526 110.812038,74.1676047 111.505376,73.1964286 C110.045128,73.2926543 108.539566,73.9451119 107.327808,74.4032404 C102.424745,76.255469 98.2481517,78.3236188 94.1480544,80.8395705 Z M115.844535,69.4642857 C114.334235,69.9295188 112.823447,70.049549 111.313147,70.2961225 C108.203362,71.197279 105.422538,72.2942986 102.661695,73.474595 C99.356482,74.8879732 96.2150186,76.8084554 93.2451027,78.6233297 C91.9701929,79.4779629 90.6947958,80.3437617 89.4198861,81.1979297 C89.4593615,81.0653382 89.4983496,80.9378644 89.537825,80.8052729 C88.9846818,80.9434472 88.5314455,81.6887506 88.4193548,82.2321429 C89.1352732,82.0637285 89.6791567,81.4947484 90.2439963,81.1514064 C91.7348025,80.2209402 93.2256087,79.2914044 94.7164148,78.3609382 C98.7307236,75.9203254 102.914143,73.8695779 107.663864,72.0961093 C109.586463,71.5834225 111.410617,71.0707356 113.332729,70.558514 C114.285012,70.3393892 115.512649,70.4152222 116,69.704346 L116,69.4642857 L115.844535,69.4642857 Z M94.060075,73.2695487 C94.9136778,73.0695164 95.6220072,72.8943124 96.2089505,72.4366272 C97.2755884,71.6046425 97.8337695,64.805885 97.5310355,62.2724542 C97.088878,58.5716215 97.0313537,55.0117953 96.1538636,51.7747379 C95.4596715,49.2131995 94.3813338,46.9172779 93.39952,44.6653915 C92.9217754,43.5696639 91.6552648,40.3237057 90.6451763,40 C90.5715647,40.0740167 90.4984405,40.1480333 90.4248288,40.22205 C90.1011325,41.0699623 90.897211,42.1399245 91.1409582,42.7217516 C91.9750612,44.7108321 92.5649295,46.9425747 93.1240856,49.1644797 C93.8519148,52.0567507 94.0322878,55.1171988 94.5563443,58.2732126 C94.6114312,59.5319642 94.6665181,60.7911842 94.7216049,62.0504043 C94.9482899,63.4318923 94.8966155,65.4106666 94.6665181,66.771074 C94.3696339,68.5268614 93.9211391,70.094328 93.6749544,71.6589838 C91.4300424,70.2156591 90.453591,67.6691115 89.2129176,65.2162558 C87.1381413,60.939686 85.0628774,56.6621793 82.988101,52.3860779 C82.2256597,50.875295 80.2937192,45.9344491 78.4812148,45.8876032 C77.6987862,47.2451997 78.1058441,51.3535925 78.1058441,53.3857712 L78.1058441,67.4376923 C78.5933385,69.0669956 78.3159542,70.6962989 78.371041,72.3256022 C78.6767001,74.3797985 78.2535549,79.1182697 79.6326767,79.8237702 C81.2609081,80.4159035 81.7293903,75.7135037 81.4758932,74.0471921 C80.8874874,70.1823985 80.6013282,64.4718731 81.2126462,60.4951176 C81.4607809,58.880805 81.0191109,57.2608709 81.2189836,55.7739794 C81.2925953,55.7369711 81.3691319,55.6999628 81.4422561,55.6629545 C82.8213779,56.7165206 83.4775454,59.3567602 84.1985497,61.0502425 C85.6527457,64.4667201 87.252215,67.8991252 89.2670295,70.7703155 C90.3102677,72.2562701 91.4373548,73.8846365 94.060075,73.2695487 Z"></path>
            </g>
        </g>
    </g>
</svg>