<?xml version="1.0" encoding="UTF-8"?>
<svg width="30px" height="16px" viewBox="0 0 30 16" version="1.1" xmlns="http://www.w3.org/2000/svg" xmlns:xlink="http://www.w3.org/1999/xlink">
    <!-- Generator: Sketch 45.2 (43514) - http://www.bohemiancoding.com/sketch -->
    <title>ic-eraser-all</title>
    <desc>Created with Sketch.</desc>
    <defs></defs>
    <g id="Symbols" stroke="none" stroke-width="1" fill="none" fill-rule="evenodd">
        <g id="ic-eraser-all">
            <g id="ic-eraser">
                <rect id="bounds" x="0" y="0" width="16" height="16"></rect>
                <path d="M8.00782436,13 L16,13 L16,15 L4,15 L0,11 L11.0627422,0.103159942 L15.9999304,5.0390387 L8.00782436,13 L8.00782436,13 Z M8,11 L5,8 L2,11 L4,13 L6,13 L8,11 Z" id="Combined-Shape" fill="#5A5A5A" fill-rule="evenodd"></path>
            </g>
            <g id="all" transform="translate(19.000000, 4.000000)" fill="#5A5A5A">
                <path d="M3.75976562,7.59765625 L3.53027344,6.84570312 L3.49121094,6.84570312 C3.23079297,7.17448081 2.96875132,7.39827415 2.70507812,7.51708984 C2.44140493,7.63590554 2.10286665,7.6953125 1.68945313,7.6953125 C1.15885151,7.6953125 0.744630396,7.55208477 0.446777344,7.265625 C0.148924292,6.97916523 0,6.57389585 0,6.04980469 C0,5.49316128 0.206703662,5.0732436 0.620117188,4.79003906 C1.03353071,4.50683452 1.66340723,4.35221367 2.50976562,4.32617188 L3.44238281,4.296875 L3.44238281,4.00878906 C3.44238281,3.66373525 3.36181721,3.40576257 3.20068359,3.23486328 C3.03954998,3.06396399 2.78971523,2.97851562 2.45117188,2.97851562 C2.17447778,2.97851562 1.90918096,3.01920532 1.65527344,3.10058594 C1.40136592,3.18196655 1.15722773,3.27799424 0.922851562,3.38867188 L0.551757812,2.56835938 C0.844728027,2.41536382 1.16536284,2.29899128 1.51367188,2.21923828 C1.86198091,2.13948528 2.19075366,2.09960938 2.5,2.09960938 C3.18685239,2.09960938 3.70523914,2.24934746 4.05517578,2.54882812 C4.40511243,2.84830879 4.58007812,3.31868169 4.58007812,3.95996094 L4.58007812,7.59765625 L3.75976562,7.59765625 Z M2.05078125,6.81640625 C2.46745,6.81640625 2.80191931,6.70003372 3.05419922,6.46728516 C3.30647913,6.2345366 3.43261719,5.90820522 3.43261719,5.48828125 L3.43261719,5.01953125 L2.73925781,5.04882812 C2.19889053,5.06835947 1.80582805,5.1586906 1.56005859,5.31982422 C1.31428914,5.48095784 1.19140625,5.7275374 1.19140625,6.05957031 C1.19140625,6.30045693 1.26302012,6.48681575 1.40625,6.61865234 C1.54947988,6.75048894 1.76432148,6.81640625 2.05078125,6.81640625 L2.05078125,6.81640625 Z M7.32910156,7.59765625 L6.18164062,7.59765625 L6.18164062,0 L7.32910156,0 L7.32910156,7.59765625 Z M10.1171875,7.59765625 L8.96972656,7.59765625 L8.96972656,0 L10.1171875,0 L10.1171875,7.59765625 Z"></path>
            </g>
        </g>
    </g>
</svg>