<?xml version="1.0" encoding="UTF-8"?>
<svg width="24px" height="24px" viewBox="0 0 24 24" version="1.1" xmlns="http://www.w3.org/2000/svg" xmlns:xlink="http://www.w3.org/1999/xlink">
    <!-- Generator: Sketch 43.2 (39069) - http://www.bohemiancoding.com/sketch -->
    <title>ic-image_text-24</title>
    <desc>Created with Sketch.</desc>
    <defs>
        <rect id="path-1" x="5" y="8" width="17" height="14" rx="2"></rect>
    </defs>
    <g id="Symbols" stroke="none" stroke-width="1" fill="none" fill-rule="evenodd">
        <g id="ic-image_text-24">
            <g>
                <rect id="Rectangle" x="0" y="0" width="24" height="24"></rect>
                <rect id="Rectangle-3" fill="#5A5A5A" x="2" y="2" width="17" height="15" rx="2"></rect>
                <rect id="Rectangle-4" fill="#FFFFFF" x="3" y="3" width="15" height="13" rx="1"></rect>
                <rect id="Rectangle-5" fill="#D1D1D1" x="4" y="4" width="13" height="11" rx="1"></rect>
                <circle id="Oval-5" fill="#FFFFFF" cx="13" cy="7" r="2"></circle>
                <polyline id="Path-2" stroke="#FFFFFF" stroke-linecap="round" points="5 14 8 12 11 14 14 12 17 14"></polyline>
                <g id="Rectangle-8">
                    <use fill="#FFFFFF" fill-rule="evenodd" xlink:href="#path-1"></use>
                    <rect stroke="#5A5A5A" stroke-width="1" x="5.5" y="8.5" width="16" height="13" rx="2"></rect>
                </g>
                <path d="M12.6197917,18.8821615 L12.0677083,17.0696615 L9.29166667,17.0696615 L8.73958333,18.8821615 L7,18.8821615 L9.6875,11.2363281 L11.6614583,11.2363281 L14.359375,18.8821615 L12.6197917,18.8821615 Z M11.6822917,15.7154948 C11.1718724,14.0731255 10.8845489,13.1443153 10.8203125,12.9290365 C10.7560761,12.7137576 10.7100696,12.5436204 10.6822917,12.4186198 C10.5677078,12.8630665 10.239586,13.9620138 9.69791667,15.7154948 L11.6822917,15.7154948 Z M18.890625,18.8821615 L18.5833333,18.0904948 L18.5416667,18.0904948 C18.2743042,18.427302 17.9991334,18.6608066 17.7161458,18.7910156 C17.4331583,18.9212246 17.0642384,18.9863281 16.609375,18.9863281 C16.0503444,18.9863281 15.6102447,18.8266075 15.2890625,18.5071615 C14.9678803,18.1877154 14.8072917,17.7328589 14.8072917,17.1425781 C14.8072917,16.5245195 15.0234353,16.0687949 15.4557292,15.7753906 C15.888023,15.4819864 16.5399262,15.3196616 17.4114583,15.2884115 L18.421875,15.2571615 L18.421875,15.0019531 C18.421875,14.4116724 18.1197947,14.1165365 17.515625,14.1165365 C17.0503449,14.1165365 16.5034754,14.2571601 15.875,14.5384115 L15.3489583,13.4654948 C16.0191006,13.1147986 16.7621487,12.9394531 17.578125,12.9394531 C18.3593789,12.9394531 18.9583313,13.1095903 19.375,13.4498698 C19.7916687,13.7901493 20,14.3075052 20,15.0019531 L20,18.8821615 L18.890625,18.8821615 Z M18.421875,16.1842448 L17.8072917,16.2050781 C17.3454838,16.2189671 17.0017372,16.3022996 16.7760417,16.4550781 C16.5503461,16.6078567 16.4375,16.8404932 16.4375,17.1529948 C16.4375,17.6009137 16.6944419,17.8248698 17.2083333,17.8248698 C17.5763907,17.8248698 17.8706586,17.7189681 18.0911458,17.5071615 C18.311633,17.2953548 18.421875,17.0141077 18.421875,16.6634115 L18.421875,16.1842448 Z" id="Aa" fill="#5A5A5A"></path>
            </g>
        </g>
    </g>
</svg>