<?xml version="1.0" encoding="UTF-8"?>
<svg width="24px" height="24px" viewBox="0 0 24 24" version="1.1" xmlns="http://www.w3.org/2000/svg" xmlns:xlink="http://www.w3.org/1999/xlink">
    <!-- Generator: Sketch 40.3 (33839) - http://www.bohemiancoding.com/sketch -->
    <title>ic-jpg-24</title>
    <desc>Created with Sketch.</desc>
    <defs></defs>
    <g stroke="none" stroke-width="1" fill="none" fill-rule="evenodd">
        <g transform="translate(-257.000000, -136.000000)">
            <g transform="translate(146.000000, 96.000000)">
                <g transform="translate(111.000000, 40.000000)">
                    <g>
                        <rect x="0" y="0" width="24" height="24"></rect>
                        <path d="M0,3.99742191 C0,2.89427625 0.897026226,2 2.00494659,2 L21.9950534,2 C23.1023548,2 24,2.89092539 24,3.99742191 L24,19.0025781 C24,20.1057238 23.1029738,21 21.9950534,21 L2.00494659,21 C0.897645164,21 0,20.1090746 0,19.0025781 L0,3.99742191 Z M1,3.9999602 C1,3.44769743 1.43945834,3 2.00246167,3 L21.9975383,3 C22.5511826,3 23,3.45470893 23,3.9999602 L23,19.0000398 C23,19.5523026 22.5605417,20 21.9975383,20 L2.00246167,20 C1.44881738,20 1,19.5452911 1,19.0000398 L1,3.9999602 Z" fill="#5A5A5A"></path>
                        <path d="M2.37109375,12.9296875 C2.37109375,14.3115234 3.31835938,15.1806641 4.76367188,15.1806641 C6.2578125,15.1806641 7.15625,14.3310547 7.15625,12.8125 L7.15625,7.95410156 L5.68164062,7.95410156 L5.68164062,12.8027344 C5.68164062,13.4960938 5.34960938,13.8623047 4.74414062,13.8623047 C4.17773438,13.8623047 3.80664062,13.4960938 3.796875,12.9296875 L2.37109375,12.9296875 Z M8.06523436,7.95410156 L8.06523436,15 L9.53984374,15 L9.53984374,12.8125 L10.9314453,12.8125 C12.4158203,12.8125 13.4460937,11.8408203 13.4460937,10.390625 C13.4460937,8.92578125 12.4548828,7.95410156 11.0046875,7.95410156 L8.06523436,7.95410156 Z M9.53984374,9.16503906 L10.6140625,9.16503906 C11.4636719,9.16503906 11.9470703,9.59472656 11.9470703,10.3955078 C11.9470703,11.1865234 11.4539062,11.6162109 10.6091797,11.6162109 L9.53984374,11.6162109 L9.53984374,9.16503906 Z M20.1949219,12.1240234 L20.1949219,11.2255859 L17.2359375,11.2255859 L17.2359375,12.3339844 L18.7642578,12.3339844 L18.759375,12.4609375 C18.7300781,13.3105469 18.0611328,13.8818359 17.0943359,13.8818359 C15.9322265,13.8818359 15.1998047,12.9638672 15.1998047,11.4550781 C15.1998047,9.97558594 15.8980469,9.07226562 17.0357422,9.07226562 C17.8560547,9.07226562 18.446875,9.48730469 18.6666015,10.2001953 L20.1314453,10.2001953 C19.9263672,8.73535156 18.7007812,7.7734375 17.0357422,7.7734375 C14.9849609,7.7734375 13.6910156,9.19921875 13.6910156,11.4697266 C13.6910156,13.7744141 14.9751953,15.1806641 17.0699219,15.1806641 C18.99375,15.1806641 20.1949219,14.0087891 20.1949219,12.1240234 L20.1949219,12.1240234 Z" fill="#5A5A5A"></path>
                    </g>
                </g>
            </g>
        </g>
    </g>
</svg>