<?xml version="1.0" encoding="UTF-8"?>
<svg width="24px" height="24px" viewBox="0 0 24 24" version="1.1" xmlns="http://www.w3.org/2000/svg" xmlns:xlink="http://www.w3.org/1999/xlink">
    <!-- Generator: Sketch 43.2 (39069) - http://www.bohemiancoding.com/sketch -->
    <title>ic-lock-24</title>
    <desc>Created with Sketch.</desc>
    <defs></defs>
    <g id="Symbols" stroke="none" stroke-width="1" fill="none" fill-rule="evenodd">
        <g id="ic-lock-24">
            <g>
                <rect id="Rectangle" x="0" y="0" width="24" height="24"></rect>
                <rect id="Rectangle-3" fill="#5A5A5A" x="2" y="8" width="20" height="14" rx="2"></rect>
                <rect id="Rectangle-4" fill="#FFFFFF" x="3" y="9" width="18" height="12" rx="1"></rect>
                <rect id="Rectangle-5" fill="#D1D1D1" x="4" y="17" width="16" height="3" rx="1"></rect>
                <circle id="Oval" fill="#5A5A5A" cx="12" cy="16" r="2"></circle>
                <path d="M15.7932743,5.77360682 C15.2861087,3.99070889 14.1542837,3 12.0058468,3 C9.85684866,3 8.7225006,3.99146764 8.21214866,5.77509232 C8.00515578,6.49851 7.92689929,7.27168621 7.93631352,8 L16.065295,8 C16.0760562,7.27081119 15.9990959,6.49715531 15.7932743,5.77360682 Z M17,9 L7,9 C7,9 6,2 12.0058468,2 C18.0116936,2 17,9 17,9 Z" id="Oval-3" fill="#5A5A5A" fill-rule="nonzero"></path>
            </g>
        </g>
    </g>
</svg>