<?xml version="1.0" encoding="UTF-8"?>
<svg width="24px" height="24px" viewBox="0 0 24 24" version="1.1" xmlns="http://www.w3.org/2000/svg" xmlns:xlink="http://www.w3.org/1999/xlink">
    <!-- Generator: Sketch 46 (44423) - http://www.bohemiancoding.com/sketch -->
    <title>ic-mp4-24</title>
    <desc>Created with Sketch.</desc>
    <defs></defs>
    <g id="Symbols" stroke="none" stroke-width="1" fill="none" fill-rule="evenodd">
        <g id="ic-mp4-24" fill="#5A5A5A">
            <g id="ic-png-24">
                <g>
                    <path d="M0,3.99742191 C0,2.89427625 0.897026226,2 2.00494659,2 L21.9950534,2 C23.1023548,2 24,2.89092539 24,3.99742191 L24,19.0025781 C24,20.1057238 23.1029738,21 21.9950534,21 L2.00494659,21 C0.897645164,21 0,20.1090746 0,19.0025781 L0,3.99742191 Z M1,3.9999602 L1,19.0000398 C1,19.5452911 1.44881738,20 2.00246167,20 L21.9975383,20 C22.5605417,20 23,19.5523026 23,19.0000398 L23,3.9999602 C23,3.45470893 22.5511826,3 21.9975383,3 L2.00246167,3 C1.43945834,3 1,3.44769743 1,3.9999602 Z" id="Combined-Shape"></path>
                    <path d="M5.29394531,8.6015625 L6.9375,13.2421875 L8.57226562,8.6015625 L10.3037109,8.6015625 L10.3037109,15 L8.98095703,15 L8.98095703,13.2509766 L9.11279297,10.2319336 L7.38574219,15 L6.48046875,15 L4.7578125,10.2363281 L4.88964844,13.2509766 L4.88964844,15 L3.57128906,15 L3.57128906,8.6015625 L5.29394531,8.6015625 Z M12.2734375,12.7456055 L12.2734375,15 L10.9550781,15 L10.9550781,8.6015625 L13.4511719,8.6015625 C13.931643,8.6015625 14.3542462,8.68945225 14.7189941,8.86523438 C15.0837421,9.0410165 15.3642568,9.29076987 15.5605469,9.61450195 C15.7568369,9.93823404 15.8549805,10.3066386 15.8549805,10.7197266 C15.8549805,11.3466828 15.640383,11.8410626 15.2111816,12.2028809 C14.7819803,12.5646991 14.1879921,12.7456055 13.4291992,12.7456055 L12.2734375,12.7456055 Z M12.2734375,11.6777344 L13.4511719,11.6777344 C13.7998064,11.6777344 14.0656729,11.5957039 14.2487793,11.4316406 C14.4318857,11.2675773 14.5234375,11.0332046 14.5234375,10.7285156 C14.5234375,10.4150375 14.4311533,10.1616221 14.246582,9.96826172 C14.0620108,9.77490138 13.8071305,9.675293 13.4819336,9.66943359 L12.2734375,9.66943359 L12.2734375,11.6777344 Z M19.8813477,12.5917969 L20.6064453,12.5917969 L20.6064453,13.6157227 L19.8813477,13.6157227 L19.8813477,15 L18.6113281,15 L18.6113281,13.6157227 L15.987793,13.6157227 L15.9306641,12.815918 L18.5981445,8.6015625 L19.8813477,8.6015625 L19.8813477,12.5917969 Z M17.1962891,12.5917969 L18.6113281,12.5917969 L18.6113281,10.3330078 L18.527832,10.4780273 L17.1962891,12.5917969 Z" id="MP4"></path>
                </g>
            </g>
        </g>
    </g>
</svg>