<?xml version="1.0" encoding="UTF-8"?>
<svg width="40px" height="40px" viewBox="0 0 40 40" version="1.1" xmlns="http://www.w3.org/2000/svg" xmlns:xlink="http://www.w3.org/1999/xlink">
    <!-- Generator: Sketch 40.3 (33839) - http://www.bohemiancoding.com/sketch -->
    <title>ic-nimbus-logo</title>
    <desc>Created with Sketch.</desc>
    <defs></defs>
    <g stroke="none" stroke-width="1" fill="none" fill-rule="evenodd">
        <g transform="translate(-382.000000, -76.000000)">
            <g transform="translate(382.000000, 76.000000)">
                <g>
                    <path d="M37,3 L37,8.57142857 C37,9.36040679 37.6715729,10 38.5,10 C39.3284271,10 40,9.36040679 40,8.57142857 L40,1.42857143 C40,0.973450515 39.7765313,0.56803809 39.4283935,0.306429018 C39.1857884,0.112929127 38.8820971,0 38.5496183,0 L31.4503817,0 C30.6395932,0 30,0.671572875 30,1.54545455 C30,2.32842712 30.6395932,3 31.4503817,3 L37,3 Z" fill="#2D2D2D"></path>
                    <path d="M7,3 L7,8.57142857 C7,9.36040679 7.67157288,10 8.5,10 C9.32842712,10 10,9.36040679 10,8.57142857 L10,1.42857143 C10,0.973450515 9.7765313,0.56803809 9.4283935,0.306429018 C9.18578841,0.112929127 8.88209713,0 8.54961832,0 L1.45038168,0 C0.639593215,0 0,0.671572875 -1.77635684e-15,1.54545455 C0,2.32842712 0.639593215,3 1.45038168,3 L7,3 Z" fill="#2D2D2D" transform="translate(5.000000, 5.000000) scale(-1, 1) translate(-5.000000, -5.000000) "></path>
                    <path d="M7,33 L7,38.5714286 C7,39.3604068 7.67157288,40 8.5,40 C9.32842712,40 10,39.3604068 10,38.5714286 L10,31.4285714 C10,30.9734505 9.7765313,30.5680381 9.4283935,30.306429 C9.18578841,30.1129291 8.88209713,30 8.54961832,30 L1.45038168,30 C0.639593215,30 0,30.6715729 -1.77635684e-15,31.5454545 C0,32.3284271 0.639593215,33 1.45038168,33 L7,33 Z" fill="#2D2D2D" transform="translate(5.000000, 35.000000) scale(-1, -1) translate(-5.000000, -35.000000) "></path>
                    <path d="M3,16.4285714 C3,15.6395932 2.32842712,15 1.5,15 C0.671572875,15 0,15.6395932 0,16.4285714 L0,23.5714286 C0,24.3604068 0.671572875,25 1.5,25 C2.32842712,25 3,24.3604068 3,23.5714286 L3,16.4285714 Z" fill="#2D2D2D"></path>
                    <path d="M40,16.4285714 C40,15.6395932 39.3284271,15 38.5,15 C37.6715729,15 37,15.6395932 37,16.4285714 L37,23.5714286 C37,24.3604068 37.6715729,25 38.5,25 C39.3284271,25 40,24.3604068 40,23.5714286 L40,16.4285714 Z" fill="#2D2D2D"></path>
                    <path d="M23.5,40 C24.3284271,40 25,39.3284271 25,38.5 C25,37.6715729 24.3284271,37 23.5,37 L15.5,37 C14.6715729,37 14,37.6715729 14,38.5 C14,39.3284271 14.6715729,40 15.5,40 L23.5,40 Z" fill="#2E2E2E"></path>
                    <path d="M23.5,3 C24.3284271,3 25,2.32842712 25,1.5 C25,0.671572875 24.3284271,0 23.5,0 L15.5,0 C14.6715729,0 14,0.671572875 14,1.5 C14,2.32842712 14.6715729,3 15.5,3 L23.5,3 Z" fill="#2E2E2E"></path>
                    <path d="M14,18.7428571 L14,27.8571429 C14.1571429,29.5928949 12.9402116,31 11.5,31 C9.90264551,31 9,29.5928949 9,27.8571429 L9,12.1428571 C9,10.4071051 10.2312169,9 11.8285714,9 C12.8063426,8.94912136 13.6983286,9.25365738 14.3428571,9.94285714 L26,21.5 L26,12.1428571 C25.8428571,10.4071051 27.0597884,9 28.5,9 C30.0973545,9 31,10.4071051 31,12.1428571 L31,27.8571429 C31,29.5928949 29.7687831,31 28.1714286,31 C27.1936574,31.0508786 26.3016714,30.7463426 25.6571429,30.0571429 L14,18.5 L14,18.7428571 Z" fill="#034896"></path>
                    <path d="M36,36 L36,37.9160603 C36,39.0669884 35.1045695,40 34,40 C32.8954305,40 32,39.0669884 32,37.9160603 L32,36 L30.0839397,36 C28.9330116,36 28,35.1045695 28,34 C28,32.8954305 28.9330116,32 30.0839397,32 L32,32 L32,30.0839397 C32,28.9330116 32.8954305,28 34,28 C35.1045695,28 36,28.9330116 36,30.0839397 L36,32 L37.9160603,32 C39.0669884,32 40,32.8954305 40,34 C40,35.1045695 39.0669884,36 37.9160603,36 L36,36 Z" fill="#2E2E2E"></path>
                </g>
            </g>
        </g>
    </g>
</svg>