<?xml version="1.0" encoding="UTF-8"?>
<svg width="16px" height="16px" viewBox="0 0 16 16" version="1.1" xmlns="http://www.w3.org/2000/svg" xmlns:xlink="http://www.w3.org/1999/xlink">
    <!-- Generator: Sketch 46 (44423) - http://www.bohemiancoding.com/sketch -->
    <title>ic-options-white-16</title>
    <desc>Created with Sketch.</desc>
    <defs></defs>
    <g id="Symbols" stroke="none" stroke-width="1" fill="none" fill-rule="evenodd">
        <g id="ic-options-white-16">
            <g id="ic-options-16">
                <g>
                    <rect id="bounds" x="0" y="0" width="16" height="16"></rect>
                    <path d="M15.3931527,6.70574272 L13.8038243,6.46906964 C13.6804463,6.00014766 13.5045842,5.55297083 13.2785448,5.13691994 L14.2710718,3.86139205 C14.4821952,3.59172924 14.4657443,3.20943633 14.2338292,2.95683855 L13.5911588,2.25846272 C13.3581767,2.00612913 12.978461,1.95861946 12.6926369,2.14620306 L11.3522604,3.02178159 C10.7489602,2.61573151 10.0683116,2.31995424 9.33682345,2.15421333 L9.04390532,0.565625911 C8.98240133,0.229215502 8.68612478,-0.0131949769 8.34344101,-0.00721340941 L7.39363451,0.00936552456 C7.05164258,0.015335016 6.76304687,0.267954478 6.71452604,0.606285378 L6.47585253,2.20466524 C5.87621308,2.3626096 5.31571468,2.61046477 4.80596722,2.93295888 L3.50108121,2.03561922 C3.21978822,1.84203943 2.83883636,1.87974276 2.60062367,2.12581229 L1.94132814,2.80907349 C1.70372698,3.05564581 1.67936652,3.43778042 1.88315198,3.71205543 L2.82766834,4.9872593 C2.52607038,5.50407413 2.30031037,6.06963972 2.16332157,6.6690406 L0.565758094,6.96455585 C0.229869953,7.0260522 -0.0130471306,7.32234533 -0.00706501497,7.66506051 L0.00950189247,8.614178 C0.0154840081,8.95689317 0.268593595,9.24452813 0.606423313,9.29426468 L2.21332693,9.53384575 C2.3429931,10.0228173 2.52693244,10.4889408 2.76807627,10.9198196 L1.78013514,12.1882128 C1.56969886,12.4575957 1.58543994,12.8401466 1.81735074,13.0924989 L2.45950786,13.7908837 C2.69249887,14.0437306 3.07246602,14.0902982 3.3582749,13.9031167 L4.71799765,13.0155247 C5.306579,13.4032574 5.96977872,13.6841807 6.67903799,13.8451526 L6.97334604,15.434073 C7.03364488,15.7705044 7.33088109,16.0128981 7.67287302,16.0069286 L8.62267951,15.9903497 C8.96536328,15.9843681 9.25299935,15.7317654 9.30272531,15.3934135 L9.5405535,13.7952047 C10.1326405,13.6394237 10.6859793,13.3957789 11.1912926,13.0788764 L12.550554,14.0142238 C12.8313474,14.2085936 13.2126313,14.1707282 13.450494,13.9237941 L14.1100397,13.2407965 C14.3474744,12.9949191 14.3735133,12.6130231 14.1679778,12.3382429 L13.1887535,11.0147982 C13.4912154,10.4963162 13.7181642,9.92979224 13.8542351,9.32768375 L15.4342419,9.03544415 C15.7711774,8.97384022 16.0130456,8.6775654 16.0070635,8.33485022 L15.9904981,7.385822 C15.9840027,7.04311579 15.7319197,6.75546291 15.3931527,6.70574272 L15.3931527,6.70574272 Z M7.9999814,13 C5.23912469,13 3,10.7604622 3,7.99990699 C3,5.23912857 5.23912469,3 7.9999814,3 C10.7603917,3 13,5.23912857 13,7.99990699 C13,10.7604622 10.7603917,13 7.9999814,13 L7.9999814,13 Z" id="Fill-1" fill="#189FB5"></path>
                </g>
            </g>
        </g>
    </g>
</svg>