<?xml version="1.0" encoding="UTF-8"?>
<svg width="24px" height="24px" viewBox="0 0 24 24" version="1.1" xmlns="http://www.w3.org/2000/svg" xmlns:xlink="http://www.w3.org/1999/xlink">
    <!-- Generator: Sketch 40.3 (33839) - http://www.bohemiancoding.com/sketch -->
    <title>ic-png-24</title>
    <desc>Created with Sketch.</desc>
    <defs></defs>
    <g stroke="none" stroke-width="1" fill="none" fill-rule="evenodd">
        <g transform="translate(-257.000000, -166.000000)">
            <g transform="translate(146.000000, 96.000000)">
                <g transform="translate(111.000000, 70.000000)">
                    <g>
                        <rect x="0" y="0" width="24" height="24"></rect>
                        <path d="M0,3.99742191 C0,2.89427625 0.897026226,2 2.00494659,2 L21.9950534,2 C23.1023548,2 24,2.89092539 24,3.99742191 L24,19.0025781 C24,20.1057238 23.1029738,21 21.9950534,21 L2.00494659,21 C0.897645164,21 0,20.1090746 0,19.0025781 L0,3.99742191 Z M1,3.9999602 C1,3.44769743 1.43945834,3 2.00246167,3 L21.9975383,3 C22.5511826,3 23,3.45470893 23,3.9999602 L23,19.0000398 C23,19.5523026 22.5605417,20 21.9975383,20 L2.00246167,20 C1.44881738,20 1,19.5452911 1,19.0000398 L1,3.9999602 Z" fill="#5A5A5A"></path>
                        <path d="M3.76904297,8.65869141 L3.76904297,15 L5.09619141,15 L5.09619141,13.03125 L6.34863281,13.03125 C7.68457031,13.03125 8.61181641,12.1567383 8.61181641,10.8515625 C8.61181641,9.53320312 7.71972656,8.65869141 6.41455078,8.65869141 L3.76904297,8.65869141 Z M5.09619141,9.74853516 L6.06298828,9.74853516 C6.82763672,9.74853516 7.26269531,10.1352539 7.26269531,10.855957 C7.26269531,11.5678711 6.81884766,11.9545898 6.05859375,11.9545898 L5.09619141,11.9545898 L5.09619141,9.74853516 Z M10.3035156,15 L10.3035156,11.0317383 L10.3826172,11.0317383 L13.309375,15 L14.4080078,15 L14.4080078,8.65869141 L13.1379883,8.65869141 L13.1379883,12.609375 L13.0588867,12.609375 L10.140918,8.65869141 L9.03349608,8.65869141 L9.03349608,15 L10.3035156,15 Z M20.7183594,12.4116211 L20.7183594,11.6030273 L18.0552734,11.6030273 L18.0552734,12.6005859 L19.4307617,12.6005859 L19.4263672,12.7148438 C19.4,13.4794922 18.7979492,13.9936523 17.927832,13.9936523 C16.8819336,13.9936523 16.2227539,13.1674805 16.2227539,11.8095703 C16.2227539,10.4780273 16.8511719,9.66503906 17.8750976,9.66503906 C18.6133789,9.66503906 19.1451172,10.0385742 19.3428711,10.6801758 L20.6612304,10.6801758 C20.4766601,9.36181641 19.3736328,8.49609375 17.8750976,8.49609375 C16.0293945,8.49609375 14.8648437,9.77929688 14.8648437,11.8227539 C14.8648437,13.8969727 16.0206054,15.1625977 17.9058594,15.1625977 C19.6373047,15.1625977 20.7183594,14.1079102 20.7183594,12.4116211 L20.7183594,12.4116211 Z" fill="#5A5A5A"></path>
                    </g>
                </g>
            </g>
        </g>
    </g>
</svg>