<?xml version="1.0" encoding="UTF-8" standalone="no"?>
<svg width="16px" height="16px" viewBox="0 0 16 16" version="1.1" xmlns="http://www.w3.org/2000/svg" xmlns:xlink="http://www.w3.org/1999/xlink">
    <!-- Generator: Sketch 3.7.2 (28276) - http://www.bohemiancoding.com/sketch -->
    <title>ic-pencil</title>
    <desc>Created with Sketch.</desc>
    <defs>
        <path d="M13.5,0.005 C14.4469301,0.005 15.3125879,0.540005941 15.736068,1.38696601 C16.159548,2.23392608 16.0681581,3.24745588 15.5,4.005 L14.5,5.005 L11,1.5 L12,0.5 C12.4329591,0.176448429 12.9595059,0.00268799544 13.5,0.005 L13.5,0.005 Z M1,11.5 L0,16 L4.5,15 L13.744,5.756 L10.244,2.256 L1,11.5 Z M11.175,5.685 L4.175,12.685 L3.314,11.824 L10.314,4.824 L11.175,5.685 Z" id="path-1"></path>
        <filter x="-50%" y="-50%" width="200%" height="200%" filterUnits="objectBoundingBox" id="filter-2">
            <feGaussianBlur stdDeviation="1.5" in="SourceAlpha" result="shadowBlurInner1"></feGaussianBlur>
            <feOffset dx="0" dy="1" in="shadowBlurInner1" result="shadowOffsetInner1"></feOffset>
            <feComposite in="shadowOffsetInner1" in2="SourceAlpha" operator="arithmetic" k2="-1" k3="1" result="shadowInnerInner1"></feComposite>
            <feColorMatrix values="0 0 0 0 0   0 0 0 0 0   0 0 0 0 0  0 0 0 0.5 0" type="matrix" in="shadowInnerInner1"></feColorMatrix>
        </filter>
    </defs>
    <g id="icons" stroke="none" stroke-width="1" fill="none" fill-rule="evenodd">
        <g transform="translate(-98.000000, -39.000000)" id="ic-pencil">
            <g transform="translate(98.000000, 39.000000)">
                <rect id="bounds" x="0" y="0" width="16" height="16"></rect>
                <g id="pen_copy">
                    <use fill="#6D6C6D" fill-rule="evenodd" xlink:href="#path-1"></use>
                    <use fill="black" fill-opacity="1" filter="url(#filter-2)" xlink:href="#path-1"></use>
                </g>
            </g>
        </g>
    </g>
</svg>