<?xml version="1.0" encoding="UTF-8"?>
<svg width="24px" height="24px" viewBox="0 0 24 24" version="1.1" xmlns="http://www.w3.org/2000/svg" xmlns:xlink="http://www.w3.org/1999/xlink">
    <!-- Generator: Sketch 40.3 (33839) - http://www.bohemiancoding.com/sketch -->
    <title>ic-selected-area-24</title>
    <desc>Created with Sketch.</desc>
    <defs></defs>
    <g stroke="none" stroke-width="1" fill="none" fill-rule="evenodd">
        <g transform="translate(-65.000000, -216.000000)">
            <g transform="translate(41.000000, 69.000000)">
                <g transform="translate(12.000000, 141.000000)">
                    <g transform="translate(12.000000, 6.000000)">
                        <g>
                            <rect x="0" y="0" width="24" height="24"></rect>
                            <rect fill="#5A5A5A" x="2" y="4" width="20" height="16" rx="2"></rect>
                            <rect fill="#FFFFFF" x="3" y="5" width="18" height="14" rx="1"></rect>
                            <polygon fill="#5A5A5A" points="8 9 10 9 10 8 7.5 8 7 8 7 11 8 11"></polygon>
                            <polygon fill="#5A5A5A" points="7.5 16 10 16 10 15 8 15 8 13 7 13 7 16"></polygon>
                            <polygon fill="#5A5A5A" points="17 8.5 17 11 16 11 16 9 14 9 14 8 17 8"></polygon>
                            <polygon fill="#5A5A5A" points="16.5 16 14 16 14 15 16 15 16 13 17 13 17 16"></polygon>
                        </g>
                    </g>
                </g>
            </g>
        </g>
    </g>
</svg>