<?xml version="1.0" encoding="UTF-8" standalone="no"?>
<svg width="16px" height="16px" viewBox="0 0 16 16" version="1.1" xmlns="http://www.w3.org/2000/svg" xmlns:xlink="http://www.w3.org/1999/xlink">
    <!-- Generator: Sketch 3.7.2 (28276) - http://www.bohemiancoding.com/sketch -->
    <title>ic-undo</title>
    <desc>Created with Sketch.</desc>
    <defs>
        <path d="M7.995,1.00000584 C5.87352516,0.997437551 3.83872761,1.84152038 2.342,3.34500584 L0,1.00000584 L0,7.00000584 L6,7.00000584 L3.759,4.75700584 C5.30566694,3.20281714 7.57695049,2.61607955 9.68285105,3.22670545 C11.7887516,3.83733135 13.3938612,5.54806601 13.8692197,7.68856022 C14.3445782,9.82905443 13.6144749,12.0583905 11.965,13.5030058 L13.287,15.0030058 C15.7847745,12.8026937 16.6590791,9.28563699 15.4823293,6.17187541 C14.3055796,3.05811384 11.3237007,0.998382235 7.995,1.00000584 L7.995,1.00000584 Z" id="path-1"></path>
        <filter x="-50%" y="-50%" width="200%" height="200%" filterUnits="objectBoundingBox" id="filter-2">
            <feGaussianBlur stdDeviation="1.5" in="SourceAlpha" result="shadowBlurInner1"></feGaussianBlur>
            <feOffset dx="0" dy="1" in="shadowBlurInner1" result="shadowOffsetInner1"></feOffset>
            <feComposite in="shadowOffsetInner1" in2="SourceAlpha" operator="arithmetic" k2="-1" k3="1" result="shadowInnerInner1"></feComposite>
            <feColorMatrix values="0 0 0 0 0   0 0 0 0 0   0 0 0 0 0  0 0 0 0.5 0" type="matrix" in="shadowInnerInner1"></feColorMatrix>
        </filter>
    </defs>
    <g id="icons" stroke="none" stroke-width="1" fill="none" fill-rule="evenodd">
        <g transform="translate(-335.000000, -74.000000)" id="ic-undo">
            <g transform="translate(335.000000, 74.000000)">
                <rect id="bounds" x="0" y="0" width="16" height="16"></rect>
                <g id="Shape">
                    <use fill="#6D6C6D" fill-rule="evenodd" xlink:href="#path-1"></use>
                    <use fill="black" fill-opacity="1" filter="url(#filter-2)" xlink:href="#path-1"></use>
                </g>
            </g>
        </g>
    </g>
</svg>