<?xml version="1.0" encoding="UTF-8"?>
<svg width="32px" height="24px" viewBox="0 0 32 24" version="1.1" xmlns="http://www.w3.org/2000/svg" xmlns:xlink="http://www.w3.org/1999/xlink">
    <!-- Generator: Sketch 46 (44423) - http://www.bohemiancoding.com/sketch -->
    <title>ic-webm</title>
    <desc>Created with Sketch.</desc>
    <defs></defs>
    <g id="Symbols" stroke="none" stroke-width="1" fill="none" fill-rule="evenodd">
        <g id="ic-webm" fill="#5A5A5A">
            <g>
                <path d="M1,3.99742191 C1,2.89427625 1.89784041,2 2.99161703,2 L29.008383,2 C30.1083227,2 31,2.89092539 31,3.99742191 L31,19.0025781 C31,20.1057238 30.1021596,21 29.008383,21 L2.99161703,21 C1.89167732,21 1,20.1090746 1,19.0025781 L1,3.99742191 Z M2,3.9999602 L2,19.0000398 C2,19.5452911 2.44616384,20 2.99653482,20 L29.0034652,20 C29.5601869,20 30,19.5523026 30,19.0000398 L30,3.9999602 C30,3.45470893 29.5538362,3 29.0034652,3 L2.99653482,3 C2.43981314,3 2,3.44769743 2,3.9999602 Z" id="Combined-Shape"></path>
                <path d="M8.5546875,13.1542969 L9.41601562,8.6015625 L10.7299805,8.6015625 L9.31054688,15 L7.98339844,15 L6.94189453,10.7197266 L5.90039062,15 L4.57324219,15 L3.15380859,8.6015625 L4.46777344,8.6015625 L5.33349609,13.1455078 L6.38818359,8.6015625 L7.50439453,8.6015625 L8.5546875,13.1542969 Z M14.7915039,12.2270508 L12.2602539,12.2270508 L12.2602539,13.940918 L15.230957,13.940918 L15.230957,15 L10.9418945,15 L10.9418945,8.6015625 L15.222168,8.6015625 L15.222168,9.66943359 L12.2602539,9.66943359 L12.2602539,11.1943359 L14.7915039,11.1943359 L14.7915039,12.2270508 Z M15.5043945,15 L15.5043945,8.6015625 L17.7456055,8.6015625 C18.5219765,8.6015625 19.1108378,8.75024265 19.512207,9.04760742 C19.9135762,9.34497219 20.1142578,9.78075885 20.1142578,10.3549805 C20.1142578,10.6684586 20.0336922,10.9445789 19.8725586,11.1833496 C19.711425,11.4221203 19.4873061,11.5971674 19.2001953,11.7084961 C19.528322,11.7905278 19.7868643,11.9560534 19.9758301,12.2050781 C20.1647959,12.4541028 20.2592773,12.7587873 20.2592773,13.1191406 C20.2592773,13.7343781 20.0629902,14.2001937 19.6704102,14.5166016 C19.2778301,14.8330094 18.7182654,14.9941406 17.9916992,15 L15.5043945,15 Z M16.8227539,12.2138672 L16.8227539,13.940918 L17.9521484,13.940918 C18.2626969,13.940918 18.5051261,13.8669441 18.6794434,13.7189941 C18.8537606,13.5710442 18.940918,13.3667005 18.940918,13.105957 C18.940918,12.5200166 18.6376983,12.2226563 18.03125,12.2138672 L16.8227539,12.2138672 Z M16.8227539,11.2822266 L17.7983398,11.2822266 C18.4633822,11.2705078 18.7958984,11.0053737 18.7958984,10.4868164 C18.7958984,10.1967759 18.7116708,9.98803775 18.5432129,9.8605957 C18.374755,9.73315366 18.1088885,9.66943359 17.7456055,9.66943359 L16.8227539,9.66943359 L16.8227539,11.2822266 Z M22.4707031,8.6015625 L24.1142578,13.2421875 L25.7490234,8.6015625 L27.4804688,8.6015625 L27.4804688,15 L26.1577148,15 L26.1577148,13.2509766 L26.2895508,10.2319336 L24.5625,15 L23.6572266,15 L21.9345703,10.2363281 L22.0664062,13.2509766 L22.0664062,15 L20.7480469,15 L20.7480469,8.6015625 L22.4707031,8.6015625 Z" id="WEBM"></path>
            </g>
        </g>
    </g>
</svg>