<?xml version="1.0" encoding="UTF-8"?>
<svg width="22px" height="22px" viewBox="0 0 22 22" version="1.1" xmlns="http://www.w3.org/2000/svg" xmlns:xlink="http://www.w3.org/1999/xlink">
    <!-- Generator: Sketch 46 (44423) - http://www.bohemiancoding.com/sketch -->
    <title>ic-youtube</title>
    <desc>Created with Sketch.</desc>
    <defs>
        <polygon id="path-1" points="0.00129158513 15.9986648 0.00129158513 0.0128400556 21.9881605 0.0128400556 21.9881605 15.9986648"></polygon>
    </defs>
    <g id="Symbols" stroke="none" stroke-width="1" fill="none" fill-rule="evenodd">
        <g id="ic-youtube">
            <rect id="Rectangle" x="0" y="0" width="22" height="22"></rect>
            <g id="YouTube_light_color_icon" transform="translate(0.000000, 3.000000)">
                <mask id="mask-2" fill="white">
                    <use xlink:href="#path-1"></use>
                </mask>
                <g id="Clip-2"></g>
                <polyline id="Fill-1" fill="#363636" mask="url(#mask-2)" points="13.9333405 8.16480668 8.72304305 4.56814465 14.6643346 7.77259527 13.9333405 8.16480668"></polyline>
                <path d="M8.72405479,10.9547928 L8.72304305,4.56814465 L14.6643346,7.77259527 L8.72405479,10.9547928 Z M21.768591,3.46174131 C21.768591,3.46174131 21.5537573,1.89536579 20.8944462,1.20558554 C20.058317,0.300261474 19.1210998,0.295766342 18.6913033,0.242781641 C15.6143816,0.0128400556 10.9988376,0.0128400556 10.9988376,0.0128400556 L10.9892798,0.0128400556 C10.9892798,0.0128400556 6.37384344,0.0128400556 3.29681409,0.242781641 C2.86699609,0.295766342 1.93012329,0.300261474 1.09369276,1.20558554 C0.434424658,1.89536579 0.219892368,3.46174131 0.219892368,3.46174131 C0.219892368,3.46174131 0,5.30118498 0,7.1406064 L0,8.86506815 C0,10.7044673 0.219892368,12.5438887 0.219892368,12.5438887 C0.219892368,12.5438887 0.434424658,14.1102865 1.09369276,14.8000668 C1.93012329,15.7054131 3.0288317,15.6767733 3.51819178,15.7716606 C5.27726614,15.9460362 10.9940802,16 10.9940802,16 C10.9940802,16 15.6143816,15.9928122 18.6913033,15.7628929 C19.1210998,15.709886 20.058317,15.7054131 20.8944462,14.8000668 C21.5537573,14.1102865 21.768591,12.5438887 21.768591,12.5438887 C21.768591,12.5438887 21.9881605,10.7044673 21.9881605,8.86506815 L21.9881605,7.1406064 C21.9881605,5.30118498 21.768591,3.46174131 21.768591,3.46174131 L21.768591,3.46174131 Z" id="Fill-3" fill="#5A5A5A" mask="url(#mask-2)"></path>
            </g>
        </g>
    </g>
</svg>