<?xml version="1.0" encoding="UTF-8"?>
<svg width="16px" height="16px" viewBox="0 0 16 16" version="1.1" xmlns="http://www.w3.org/2000/svg" xmlns:xlink="http://www.w3.org/1999/xlink">
    <!-- Generator: Sketch 40.3 (33839) - http://www.bohemiancoding.com/sketch -->
    <title>ic-gallery-16</title>
    <desc>Created with Sketch.</desc>
    <defs></defs>
    <g id="Symbols" stroke="none" stroke-width="1" fill="none" fill-rule="evenodd">
        <g id="ic-gallery-16">
            <g>
                <rect id="bounds" x="0" y="0" width="16" height="16"></rect>
                <path d="M2,2.00247329 C2,1.44882258 2.44994876,1 3.00684547,1 L14.9931545,1 C15.5492199,1 16,1.45576096 16,2.00247329 L16,11.9975267 C16,12.5511774 15.5500512,13 14.9931545,13 L3.00684547,13 C2.45078007,13 2,12.544239 2,11.9975267 L2,2.00247329 Z M3,2.50964952 C3,2.22817786 3.22900057,2 3.50034732,2 L14.4996527,2 C14.7759869,2 15,2.22765279 15,2.50964952 L15,11.4903505 C15,11.7718221 14.7709994,12 14.4996527,12 L3.50034732,12 C3.22401312,12 3,11.7723472 3,11.4903505 L3,2.50964952 Z" id="Combined-Shape" fill="#5A5A5A"></path>
                <path d="M4,9.05273769 C4,8.49705686 4.40345773,8.22828585 4.91519105,8.44380879 C4.91519105,8.44380879 6.09929685,9.03722127 7,9.03722127 C8.1046046,9.03722127 9.14256943,7.27897104 10.5,7.05595581 C12.131989,6.78783277 13.1322407,7.57036614 13.1322407,7.57036614 C13.6114909,7.83337651 14,8.48510235 14,9.05273769 L14,10.0123376 C14,10.5680184 13.5443356,11.0184867 13.0046024,11.0184867 L4.99539757,11.0184867 C4.44565467,11.0184867 4,10.5799729 4,10.0123376 L4,9.05273769 Z" id="Path-2" fill="#5A5A5A"></path>
                <path d="M0.146446609,14.8535534 C0.0559644063,14.7630712 0,14.6380712 0,14.5 L0,5.5 C0,5.22385763 0.223857625,5 0.5,5 C0.776142375,5 1,5.22385763 1,5.5 L1,14 L13.5,14 C13.7761424,14 14,14.2238576 14,14.5 C14,14.7761424 13.7761424,15 13.5,15 L0.5,15 C0.361928813,15 0.236928813,14.9440356 0.146446609,14.8535534 Z" id="Combined-Shape" fill="#5A5A5A"></path>
                <circle id="Oval" fill="#5A5A5A" cx="5.5" cy="4.5" r="1.5"></circle>
            </g>
        </g>
    </g>
</svg>