<?xml version="1.0" encoding="UTF-8"?>
<svg width="16px" height="16px" viewBox="0 0 16 16" version="1.1" xmlns="http://www.w3.org/2000/svg" xmlns:xlink="http://www.w3.org/1999/xlink">
    <!-- Generator: Sketch 45.2 (43514) - http://www.bohemiancoding.com/sketch -->
    <title>ic-done</title>
    <desc>Created with Sketch.</desc>
    <defs></defs>
    <g id="edit-panels" stroke="none" stroke-width="1" fill="none" fill-rule="evenodd">
        <g id="main-edit-panel" transform="translate(-336.000000, -238.000000)">
            <g id="notifications" transform="translate(260.000000, 226.000000)">
                <g id="ic-done" transform="translate(76.000000, 12.000000)">
                    <g>
                        <rect id="bounds" x="0" y="0" width="16" height="16"></rect>
                        <path d="M8,16 C3.581722,16 0,12.418278 0,8 C0,3.581722 3.581722,0 8,0 C12.418278,0 16,3.581722 16,8 C16,12.418278 12.418278,16 8,16 Z M6.5,9.08578644 L4.70710678,7.29289322 L4,6.58578644 L2.58578644,8 L3.29289322,8.70710678 L5.79289322,11.2071068 L6.5,11.9142136 L6.85355339,11.5606602 L7.20710678,11.2071068 L12.7071068,5.70710678 L13.4142136,5 L12,3.58578644 L11.2928932,4.29289322 L6.5,9.08578644 Z" id="Combined-Shape" fill="#5A5A5A"></path>
                    </g>
                </g>
            </g>
        </g>
    </g>
</svg>