<?xml version="1.0" encoding="UTF-8"?>
<svg width="24px" height="24px" viewBox="0 0 24 24" version="1.1" xmlns="http://www.w3.org/2000/svg" xmlns:xlink="http://www.w3.org/1999/xlink">
    <!-- Generator: Sketch 45.2 (43514) - http://www.bohemiancoding.com/sketch -->
    <title>ic-delayed-screenshot-24</title>
    <desc>Created with Sketch.</desc>
    <defs></defs>
    <g id="edit-panels" stroke="none" stroke-width="1" fill="none" fill-rule="evenodd">
        <g id="main-edit-panel" transform="translate(-74.000000, -684.000000)">
            <g id="tab" transform="translate(58.000000, 427.000000)">
                <g id="ic-delayed-screenshot-24" transform="translate(16.000000, 257.000000)">
                    <g>
                        <rect id="Rectangle" x="0" y="0" width="24" height="24"></rect>
                        <path d="M3,13 C3,8.02943725 7.02943725,4 12,4 C16.9705627,4 21,8.02943725 21,13 C21,17.9705627 16.9705627,22 12,22 C7.02943725,22 3,17.9705627 3,13 Z M10,1 L14,1 L14,3 L10,3 L10,1 Z M18,3 L21,3 L21,6 L18,3 Z" id="Combined-Shape" fill="#5A5A5A" fill-rule="nonzero"></path>
                        <path d="M20,13 C20,8.581722 16.418278,5 12,5 C7.581722,5 4,8.581722 4,13 C4,17.418278 7.581722,21 12,21 C16.418278,21 20,17.418278 20,13 Z" id="Path" fill="#FFFFFF"></path>
                        <path d="M12,7 C8.6862915,7 6,9.6862915 6,13 L12,13 L12,7 L12,7 Z" id="Combined-Shape" fill="#D8D8D8"></path>
                    </g>
                </g>
            </g>
        </g>
    </g>
</svg>