<?xml version="1.0" encoding="UTF-8"?>
<svg width="24px" height="24px" viewBox="0 0 24 24" version="1.1" xmlns="http://www.w3.org/2000/svg" xmlns:xlink="http://www.w3.org/1999/xlink">
    <!-- Generator: Sketch 45.2 (43514) - http://www.bohemiancoding.com/sketch -->
    <title>ic-entire-page-24</title>
    <desc>Created with Sketch.</desc>
    <defs></defs>
    <g id="Symbols" stroke="none" stroke-width="1" fill="none" fill-rule="evenodd">
        <g id="ic-entire-page-24">
            <g>
                <rect id="bounds" x="0" y="0" width="24" height="24"></rect>
                <rect id="Rectangle-3" fill="#5A5A5A" x="2" y="3" width="20" height="16" rx="2"></rect>
                <rect id="Rectangle-4" fill="#FFFFFF" x="3" y="4" width="18" height="14" rx="1"></rect>
                <path d="M4,5.99850233 C4,5.44704472 4.44463086,5 5.00087166,5 L18.9991283,5 C19.5518945,5 20,5.44748943 20,5.99850233 L20,18 L4,18 L4,5.99850233 Z" id="Rectangle-5" fill="#D1D1D1"></path>
                <path d="M4,20 L20,20 L20,21 C20,21.5522847 19.5553691,22 18.9991283,22 L5.00087166,22 C4.4481055,22 4,21.5561352 4,21 L4,20 Z" id="Rectangle-5" fill="#5A5A5A"></path>
            </g>
        </g>
    </g>
</svg>