<?xml version="1.0" encoding="UTF-8"?>
<svg width="24px" height="24px" viewBox="0 0 24 24" version="1.1" xmlns="http://www.w3.org/2000/svg" xmlns:xlink="http://www.w3.org/1999/xlink">
    <!-- Generator: Sketch 45.2 (43514) - http://www.bohemiancoding.com/sketch -->
    <title>ic-mouse-click</title>
    <desc>Created with Sketch.</desc>
    <defs></defs>
    <g id="edit-panels" stroke="none" stroke-width="1" fill="none" fill-rule="evenodd">
        <g id="main-edit-panel" transform="translate(-74.000000, -598.000000)">
            <g id="tab" transform="translate(58.000000, 427.000000)">
                <g id="ic-mouse-click" transform="translate(16.000000, 171.000000)">
                    <g>
                        <rect id="Rectangle-6" x="0" y="0" width="24" height="24"></rect>
                        <polygon id="Combined-Shape" fill="#5A5A5A" points="16.384443 16.8511097 14.6666667 21 11 10 22 13.6666667 17.8511097 15.384443 21.2666667 18.8 19.8 20.2666667"></polygon>
                        <path d="M18,11 C18,7.6862915 15.3137085,5 12,5 C8.6862915,5 6,7.6862915 6,11 C6,14.3137085 8.6862915,17 12,17 C15.3137085,17 18,14.3137085 18,11 Z M5,11 C5,7.13400675 8.13400675,4 12,4 C15.8659932,4 19,7.13400675 19,11 C19,14.8659932 15.8659932,18 12,18 C8.13400675,18 5,14.8659932 5,11 Z" id="Oval-2" fill="#5A5A5A" fill-rule="nonzero"></path>
                    </g>
                </g>
            </g>
        </g>
    </g>
</svg>