<?xml version="1.0" encoding="UTF-8"?>
<svg width="16px" height="16px" viewBox="0 0 16 16" version="1.1" xmlns="http://www.w3.org/2000/svg" xmlns:xlink="http://www.w3.org/1999/xlink">
    <!-- Generator: Sketch 45.2 (43514) - http://www.bohemiancoding.com/sketch -->
    <title>ic-question</title>
    <desc>Created with Sketch.</desc>
    <defs></defs>
    <g id="edit-panels" stroke="none" stroke-width="1" fill="none" fill-rule="evenodd">
        <g id="main-edit-panel" transform="translate(-304.000000, -238.000000)">
            <g id="notifications" transform="translate(260.000000, 226.000000)">
                <g id="ic-question" transform="translate(44.000000, 12.000000)">
                    <g>
                        <rect id="bounds" x="0" y="0" width="16" height="16"></rect>
                        <path d="M8,16 C3.581722,16 0,12.418278 0,8 C0,3.581722 3.581722,0 8,0 C12.418278,0 16,3.581722 16,8 C16,12.418278 12.418278,16 8,16 Z M7.08203125,9.15820312 L8.63476562,9.15820312 L8.63476562,8.80664062 C8.63476562,8.57226445 8.68456981,8.38281322 8.78417969,8.23828125 C8.88378956,8.09374928 9.12109188,7.88281389 9.49609375,7.60546875 C10.0429715,7.2148418 10.4140615,6.86328281 10.609375,6.55078125 C10.8046885,6.23827969 10.9023438,5.86718965 10.9023438,5.4375 C10.9023438,4.79296553 10.6650414,4.27734568 10.1904297,3.890625 C9.71581794,3.50390432 9.0761759,3.31054688 8.27148438,3.31054688 C7.29491699,3.31054688 6.37109811,3.55468506 5.5,4.04296875 L6.13867188,5.32617188 C6.88867562,4.94335746 7.5566377,4.75195312 8.14257812,4.75195312 C8.4785173,4.75195312 8.74023344,4.81835871 8.92773438,4.95117188 C9.11523531,5.08398504 9.20898438,5.27734248 9.20898438,5.53125 C9.20898438,5.75781363 9.14355534,5.96288971 9.01269531,6.14648438 C8.88183528,6.33007904 8.61133018,6.56835791 8.20117188,6.86132812 C7.7753885,7.17382969 7.48242268,7.46874861 7.32226562,7.74609375 C7.16210857,8.02343889 7.08203125,8.3496075 7.08203125,8.72460938 L7.08203125,9.15820312 Z M6.89453125,11.1621094 C6.89453125,11.4785172 6.9843741,11.7236319 7.1640625,11.8974609 C7.3437509,12.0712899 7.59765461,12.1582031 7.92578125,12.1582031 C8.24609535,12.1582031 8.49609285,12.0693368 8.67578125,11.8916016 C8.85546965,11.7138663 8.9453125,11.4707047 8.9453125,11.1621094 C8.9453125,10.8417953 8.8564462,10.595704 8.67871094,10.4238281 C8.50097567,10.2519523 8.25000162,10.1660156 7.92578125,10.1660156 C7.58984207,10.1660156 7.33398525,10.2499992 7.15820312,10.4179688 C6.982421,10.5859383 6.89453125,10.8339827 6.89453125,11.1621094 Z" id="Combined-Shape" fill="#5A5A5A"></path>
                    </g>
                </g>
            </g>
        </g>
    </g>
</svg>