<?xml version="1.0" encoding="UTF-8"?>
<svg width="16px" height="16px" viewBox="0 0 16 16" version="1.1" xmlns="http://www.w3.org/2000/svg" xmlns:xlink="http://www.w3.org/1999/xlink">
    <!-- Generator: Sketch 40.3 (33839) - http://www.bohemiancoding.com/sketch -->
    <title>ic-color-select</title>
    <desc>Created with Sketch.</desc>
    <defs></defs>
    <g id="Symbols" stroke="none" stroke-width="1" fill="none" fill-rule="evenodd">
        <g id="ic-color-select">
            <g>
                <rect id="bounds" x="0" y="0" width="16" height="16"></rect>
                <path d="M9.26767828,4.85346472 L8.12132034,3.70710678 L7.41421356,3 L6,4.41421356 L6.70710678,5.12132034 L7.77319022,6.18740378 C7.6534899,6.25376054 7.54094043,6.33773922 7.43933983,6.43933983 L1.91665932,11.9620203 C1.33087288,12.5478068 1.33087288,13.4975542 1.91665932,14.0833407 C2.50244576,14.6691271 3.45219323,14.6691271 4.03797966,14.0833407 L9.56066017,8.56066017 C9.66226078,8.45905957 9.74623946,8.3465101 9.81259622,8.22680978 L10.7071068,9.12132034 L11.4142136,9.82842712 L12.8284271,8.41421356 L12.1213203,7.70710678 L11.1462802,6.73206662 L14.0193004,4.60035302 C14.4661688,4.2687872 14.5149291,3.68650196 14.1146955,3.28626841 L12.7137316,1.88530447 C12.3195485,1.49112139 11.7353047,1.5282583 11.4047396,1.97370551 L9.26767828,4.85346472 L9.26767828,4.85346472 Z" id="Combined-Shape" fill="#5A5A5A"></path>
            </g>
        </g>
    </g>
</svg>